<mxfile host="Electron" modified="2023-10-25T08:34:01.726Z" agent="Mozilla/5.0 (X11; Linux x86_64) AppleWebKit/537.36 (KHTML, like Gecko) draw.io/22.0.2 Chrome/114.0.5735.289 Electron/25.8.4 Safari/537.36" etag="aQzZXdlilNGw0tVyX0ma" version="22.0.2" type="device">
  <diagram name="Page-1" id="k_NtMmXpZdvqYn8EDo_L">
    <mxGraphModel dx="3984" dy="879" grid="1" gridSize="10" guides="1" tooltips="1" connect="1" arrows="1" fold="1" page="1" pageScale="1" pageWidth="850" pageHeight="1100" math="0" shadow="0">
      <root>
        <mxCell id="0" />
        <mxCell id="1" parent="0" />
        <mxCell id="OCioMkKBdpS4ipMZk7v0-75" value="" style="ellipse;whiteSpace=wrap;html=1;" parent="1" vertex="1">
          <mxGeometry x="-1770" y="748.13" width="390" height="323.75" as="geometry" />
        </mxCell>
        <mxCell id="OCioMkKBdpS4ipMZk7v0-74" value="" style="ellipse;whiteSpace=wrap;html=1;" parent="1" vertex="1">
          <mxGeometry x="-1860" y="400" width="330" height="255" as="geometry" />
        </mxCell>
        <mxCell id="OCioMkKBdpS4ipMZk7v0-73" value="" style="ellipse;whiteSpace=wrap;html=1;" parent="1" vertex="1">
          <mxGeometry x="-2270" y="550" width="330" height="255" as="geometry" />
        </mxCell>
        <mxCell id="5llFC0Dtu4sXykQ68G8s-1" value="Source" style="ellipse;whiteSpace=wrap;html=1;aspect=fixed;fontSize=20;" parent="1" vertex="1">
          <mxGeometry x="50" y="360" width="80" height="80" as="geometry" />
        </mxCell>
        <mxCell id="5llFC0Dtu4sXykQ68G8s-6" style="edgeStyle=orthogonalEdgeStyle;rounded=0;orthogonalLoop=1;jettySize=auto;html=1;entryX=0.5;entryY=0;entryDx=0;entryDy=0;" parent="1" source="5llFC0Dtu4sXykQ68G8s-2" target="5llFC0Dtu4sXykQ68G8s-1" edge="1">
          <mxGeometry relative="1" as="geometry" />
        </mxCell>
        <mxCell id="5llFC0Dtu4sXykQ68G8s-17" value="Knows" style="edgeLabel;html=1;align=center;verticalAlign=middle;resizable=0;points=[];fontSize=20;" parent="5llFC0Dtu4sXykQ68G8s-6" vertex="1" connectable="0">
          <mxGeometry x="0.4214" y="2" relative="1" as="geometry">
            <mxPoint as="offset" />
          </mxGeometry>
        </mxCell>
        <mxCell id="5llFC0Dtu4sXykQ68G8s-7" style="edgeStyle=orthogonalEdgeStyle;rounded=0;orthogonalLoop=1;jettySize=auto;html=1;entryX=0.5;entryY=0;entryDx=0;entryDy=0;" parent="1" source="5llFC0Dtu4sXykQ68G8s-2" target="5llFC0Dtu4sXykQ68G8s-5" edge="1">
          <mxGeometry relative="1" as="geometry" />
        </mxCell>
        <mxCell id="5llFC0Dtu4sXykQ68G8s-16" value="Knows" style="edgeLabel;html=1;align=center;verticalAlign=middle;resizable=0;points=[];fontSize=20;" parent="5llFC0Dtu4sXykQ68G8s-7" vertex="1" connectable="0">
          <mxGeometry x="-0.0615" y="-3" relative="1" as="geometry">
            <mxPoint x="3" y="-11" as="offset" />
          </mxGeometry>
        </mxCell>
        <mxCell id="5llFC0Dtu4sXykQ68G8s-8" style="edgeStyle=orthogonalEdgeStyle;rounded=0;orthogonalLoop=1;jettySize=auto;html=1;entryX=0.5;entryY=0;entryDx=0;entryDy=0;" parent="1" source="5llFC0Dtu4sXykQ68G8s-2" target="5llFC0Dtu4sXykQ68G8s-4" edge="1">
          <mxGeometry relative="1" as="geometry" />
        </mxCell>
        <mxCell id="5llFC0Dtu4sXykQ68G8s-15" value="Knowns" style="edgeLabel;html=1;align=center;verticalAlign=middle;resizable=0;points=[];fontSize=20;" parent="5llFC0Dtu4sXykQ68G8s-8" vertex="1" connectable="0">
          <mxGeometry x="0.1491" y="1" relative="1" as="geometry">
            <mxPoint x="-1" y="37" as="offset" />
          </mxGeometry>
        </mxCell>
        <mxCell id="5llFC0Dtu4sXykQ68G8s-2" value="Engine" style="whiteSpace=wrap;html=1;aspect=fixed;fontSize=20;" parent="1" vertex="1">
          <mxGeometry x="200" y="150" width="80" height="80" as="geometry" />
        </mxCell>
        <mxCell id="5llFC0Dtu4sXykQ68G8s-4" value="Source" style="ellipse;whiteSpace=wrap;html=1;aspect=fixed;fontSize=20;" parent="1" vertex="1">
          <mxGeometry x="345" y="360" width="80" height="80" as="geometry" />
        </mxCell>
        <mxCell id="5llFC0Dtu4sXykQ68G8s-5" value="Source" style="ellipse;whiteSpace=wrap;html=1;aspect=fixed;fontSize=20;" parent="1" vertex="1">
          <mxGeometry x="200" y="360" width="80" height="80" as="geometry" />
        </mxCell>
        <mxCell id="5llFC0Dtu4sXykQ68G8s-18" style="edgeStyle=orthogonalEdgeStyle;rounded=0;orthogonalLoop=1;jettySize=auto;html=1;entryX=0.5;entryY=0;entryDx=0;entryDy=0;" parent="1" source="5llFC0Dtu4sXykQ68G8s-9" target="5llFC0Dtu4sXykQ68G8s-10" edge="1">
          <mxGeometry relative="1" as="geometry" />
        </mxCell>
        <mxCell id="5llFC0Dtu4sXykQ68G8s-9" value="&lt;font style=&quot;font-size: 20px;&quot;&gt;Engine&lt;/font&gt;" style="whiteSpace=wrap;html=1;aspect=fixed;" parent="1" vertex="1">
          <mxGeometry x="1175" y="210" width="80" height="80" as="geometry" />
        </mxCell>
        <mxCell id="9sUryJJlOvNMb-I_94Rk-1" style="edgeStyle=orthogonalEdgeStyle;rounded=0;orthogonalLoop=1;jettySize=auto;html=1;entryX=0.5;entryY=0;entryDx=0;entryDy=0;" parent="1" source="5llFC0Dtu4sXykQ68G8s-10" target="5llFC0Dtu4sXykQ68G8s-14" edge="1">
          <mxGeometry relative="1" as="geometry" />
        </mxCell>
        <mxCell id="9sUryJJlOvNMb-I_94Rk-2" value="&lt;font style=&quot;font-size: 20px;&quot;&gt;Knowns&lt;/font&gt;" style="edgeLabel;html=1;align=center;verticalAlign=middle;resizable=0;points=[];" parent="9sUryJJlOvNMb-I_94Rk-1" vertex="1" connectable="0">
          <mxGeometry x="-0.4698" relative="1" as="geometry">
            <mxPoint x="18" as="offset" />
          </mxGeometry>
        </mxCell>
        <mxCell id="5llFC0Dtu4sXykQ68G8s-10" value="&lt;font style=&quot;font-size: 20px;&quot;&gt;Source&lt;/font&gt;" style="ellipse;whiteSpace=wrap;html=1;aspect=fixed;" parent="1" vertex="1">
          <mxGeometry x="1175" y="380" width="80" height="80" as="geometry" />
        </mxCell>
        <mxCell id="5llFC0Dtu4sXykQ68G8s-11" value="&lt;font style=&quot;font-size: 20px;&quot;&gt;Source&lt;/font&gt;" style="ellipse;whiteSpace=wrap;html=1;aspect=fixed;" parent="1" vertex="1">
          <mxGeometry x="1035" y="570" width="80" height="80" as="geometry" />
        </mxCell>
        <mxCell id="5llFC0Dtu4sXykQ68G8s-12" value="&lt;font style=&quot;font-size: 20px;&quot;&gt;Source&lt;/font&gt;" style="ellipse;whiteSpace=wrap;html=1;aspect=fixed;" parent="1" vertex="1">
          <mxGeometry x="1225" y="660" width="80" height="80" as="geometry" />
        </mxCell>
        <mxCell id="5llFC0Dtu4sXykQ68G8s-13" value="&lt;font style=&quot;font-size: 20px;&quot;&gt;Source&lt;/font&gt;" style="ellipse;whiteSpace=wrap;html=1;aspect=fixed;" parent="1" vertex="1">
          <mxGeometry x="1035" y="780" width="80" height="80" as="geometry" />
        </mxCell>
        <mxCell id="9sUryJJlOvNMb-I_94Rk-4" style="edgeStyle=orthogonalEdgeStyle;rounded=0;orthogonalLoop=1;jettySize=auto;html=1;entryX=1;entryY=0.5;entryDx=0;entryDy=0;" parent="1" source="5llFC0Dtu4sXykQ68G8s-14" target="5llFC0Dtu4sXykQ68G8s-12" edge="1">
          <mxGeometry relative="1" as="geometry">
            <Array as="points">
              <mxPoint x="1430" y="700" />
            </Array>
          </mxGeometry>
        </mxCell>
        <mxCell id="9sUryJJlOvNMb-I_94Rk-5" value="&lt;span style=&quot;font-size: 20px;&quot;&gt;Likes&lt;br&gt;&lt;/span&gt;" style="edgeLabel;html=1;align=center;verticalAlign=middle;resizable=0;points=[];" parent="9sUryJJlOvNMb-I_94Rk-4" vertex="1" connectable="0">
          <mxGeometry x="-0.5034" y="-3" relative="1" as="geometry">
            <mxPoint y="-1" as="offset" />
          </mxGeometry>
        </mxCell>
        <mxCell id="5llFC0Dtu4sXykQ68G8s-14" value="&lt;font style=&quot;font-size: 20px;&quot;&gt;Source&lt;/font&gt;" style="ellipse;whiteSpace=wrap;html=1;aspect=fixed;" parent="1" vertex="1">
          <mxGeometry x="1390" y="450" width="80" height="80" as="geometry" />
        </mxCell>
        <mxCell id="5llFC0Dtu4sXykQ68G8s-21" style="edgeStyle=orthogonalEdgeStyle;rounded=0;orthogonalLoop=1;jettySize=auto;html=1;entryX=0.5;entryY=0;entryDx=0;entryDy=0;exitX=0.5;exitY=1;exitDx=0;exitDy=0;" parent="1" source="5llFC0Dtu4sXykQ68G8s-10" target="5llFC0Dtu4sXykQ68G8s-11" edge="1">
          <mxGeometry relative="1" as="geometry">
            <mxPoint x="1225" y="260" as="sourcePoint" />
            <mxPoint x="1225" y="390" as="targetPoint" />
          </mxGeometry>
        </mxCell>
        <mxCell id="5llFC0Dtu4sXykQ68G8s-22" value="Text" style="edgeLabel;html=1;align=center;verticalAlign=middle;resizable=0;points=[];" parent="5llFC0Dtu4sXykQ68G8s-21" vertex="1" connectable="0">
          <mxGeometry x="-0.0154" y="1" relative="1" as="geometry">
            <mxPoint as="offset" />
          </mxGeometry>
        </mxCell>
        <mxCell id="5llFC0Dtu4sXykQ68G8s-23" value="&lt;span style=&quot;font-size: 20px;&quot;&gt;Has a contract&lt;br&gt;&lt;/span&gt;" style="edgeLabel;html=1;align=center;verticalAlign=middle;resizable=0;points=[];" parent="5llFC0Dtu4sXykQ68G8s-21" vertex="1" connectable="0">
          <mxGeometry x="-0.0615" y="3" relative="1" as="geometry">
            <mxPoint as="offset" />
          </mxGeometry>
        </mxCell>
        <mxCell id="5llFC0Dtu4sXykQ68G8s-24" style="edgeStyle=orthogonalEdgeStyle;rounded=0;orthogonalLoop=1;jettySize=auto;html=1;exitX=1;exitY=0.5;exitDx=0;exitDy=0;" parent="1" source="5llFC0Dtu4sXykQ68G8s-11" target="5llFC0Dtu4sXykQ68G8s-12" edge="1">
          <mxGeometry relative="1" as="geometry">
            <mxPoint x="1235" y="270" as="sourcePoint" />
            <mxPoint x="1235" y="400" as="targetPoint" />
          </mxGeometry>
        </mxCell>
        <mxCell id="5llFC0Dtu4sXykQ68G8s-25" value="Text" style="edgeLabel;html=1;align=center;verticalAlign=middle;resizable=0;points=[];" parent="5llFC0Dtu4sXykQ68G8s-24" vertex="1" connectable="0">
          <mxGeometry x="-0.0154" y="1" relative="1" as="geometry">
            <mxPoint as="offset" />
          </mxGeometry>
        </mxCell>
        <mxCell id="5llFC0Dtu4sXykQ68G8s-26" value="&lt;font style=&quot;font-size: 20px;&quot;&gt;Dislike&lt;/font&gt;" style="edgeLabel;html=1;align=center;verticalAlign=middle;resizable=0;points=[];" parent="5llFC0Dtu4sXykQ68G8s-24" vertex="1" connectable="0">
          <mxGeometry x="-0.0615" y="3" relative="1" as="geometry">
            <mxPoint as="offset" />
          </mxGeometry>
        </mxCell>
        <mxCell id="5llFC0Dtu4sXykQ68G8s-27" style="edgeStyle=orthogonalEdgeStyle;rounded=0;orthogonalLoop=1;jettySize=auto;html=1;exitX=0.5;exitY=1;exitDx=0;exitDy=0;" parent="1" source="5llFC0Dtu4sXykQ68G8s-11" target="5llFC0Dtu4sXykQ68G8s-13" edge="1">
          <mxGeometry relative="1" as="geometry">
            <mxPoint x="1245" y="280" as="sourcePoint" />
            <mxPoint x="1245" y="410" as="targetPoint" />
          </mxGeometry>
        </mxCell>
        <mxCell id="5llFC0Dtu4sXykQ68G8s-28" value="Text" style="edgeLabel;html=1;align=center;verticalAlign=middle;resizable=0;points=[];" parent="5llFC0Dtu4sXykQ68G8s-27" vertex="1" connectable="0">
          <mxGeometry x="-0.0154" y="1" relative="1" as="geometry">
            <mxPoint as="offset" />
          </mxGeometry>
        </mxCell>
        <mxCell id="5llFC0Dtu4sXykQ68G8s-29" value="&lt;font style=&quot;font-size: 20px;&quot;&gt;Knowns&lt;/font&gt;" style="edgeLabel;html=1;align=center;verticalAlign=middle;resizable=0;points=[];" parent="5llFC0Dtu4sXykQ68G8s-27" vertex="1" connectable="0">
          <mxGeometry x="-0.0615" y="3" relative="1" as="geometry">
            <mxPoint as="offset" />
          </mxGeometry>
        </mxCell>
        <mxCell id="5llFC0Dtu4sXykQ68G8s-30" style="edgeStyle=orthogonalEdgeStyle;rounded=0;orthogonalLoop=1;jettySize=auto;html=1;entryX=0.5;entryY=0;entryDx=0;entryDy=0;" parent="1" source="5llFC0Dtu4sXykQ68G8s-33" target="5llFC0Dtu4sXykQ68G8s-34" edge="1">
          <mxGeometry relative="1" as="geometry" />
        </mxCell>
        <mxCell id="5llFC0Dtu4sXykQ68G8s-31" value="Text" style="edgeLabel;html=1;align=center;verticalAlign=middle;resizable=0;points=[];" parent="5llFC0Dtu4sXykQ68G8s-30" vertex="1" connectable="0">
          <mxGeometry x="-0.0154" y="1" relative="1" as="geometry">
            <mxPoint as="offset" />
          </mxGeometry>
        </mxCell>
        <mxCell id="5llFC0Dtu4sXykQ68G8s-32" value="&lt;span style=&quot;font-size: 20px;&quot;&gt;May be useful&lt;/span&gt;" style="edgeLabel;html=1;align=center;verticalAlign=middle;resizable=0;points=[];" parent="5llFC0Dtu4sXykQ68G8s-30" vertex="1" connectable="0">
          <mxGeometry x="-0.0615" y="3" relative="1" as="geometry">
            <mxPoint as="offset" />
          </mxGeometry>
        </mxCell>
        <mxCell id="5llFC0Dtu4sXykQ68G8s-33" value="&lt;font style=&quot;font-size: 20px;&quot;&gt;Engine&lt;/font&gt;" style="whiteSpace=wrap;html=1;aspect=fixed;" parent="1" vertex="1">
          <mxGeometry x="150" y="590" width="80" height="80" as="geometry" />
        </mxCell>
        <mxCell id="5llFC0Dtu4sXykQ68G8s-34" value="&lt;font style=&quot;font-size: 20px;&quot;&gt;Source&lt;/font&gt;" style="ellipse;whiteSpace=wrap;html=1;aspect=fixed;" parent="1" vertex="1">
          <mxGeometry x="150" y="800" width="80" height="80" as="geometry" />
        </mxCell>
        <mxCell id="5llFC0Dtu4sXykQ68G8s-35" value="&lt;font style=&quot;font-size: 20px;&quot;&gt;Source&lt;/font&gt;" style="ellipse;whiteSpace=wrap;html=1;aspect=fixed;" parent="1" vertex="1">
          <mxGeometry x="150" y="1000" width="80" height="80" as="geometry" />
        </mxCell>
        <mxCell id="5llFC0Dtu4sXykQ68G8s-36" value="&lt;font style=&quot;font-size: 20px;&quot;&gt;Source&lt;/font&gt;" style="ellipse;whiteSpace=wrap;html=1;aspect=fixed;" parent="1" vertex="1">
          <mxGeometry x="360" y="1090" width="80" height="80" as="geometry" />
        </mxCell>
        <mxCell id="5llFC0Dtu4sXykQ68G8s-37" value="&lt;font style=&quot;font-size: 20px;&quot;&gt;Source&lt;/font&gt;" style="ellipse;whiteSpace=wrap;html=1;aspect=fixed;" parent="1" vertex="1">
          <mxGeometry x="-60" y="1090" width="80" height="80" as="geometry" />
        </mxCell>
        <mxCell id="5llFC0Dtu4sXykQ68G8s-38" style="edgeStyle=orthogonalEdgeStyle;rounded=0;orthogonalLoop=1;jettySize=auto;html=1;entryX=0.5;entryY=0;entryDx=0;entryDy=0;exitX=0.5;exitY=1;exitDx=0;exitDy=0;" parent="1" source="5llFC0Dtu4sXykQ68G8s-34" target="5llFC0Dtu4sXykQ68G8s-35" edge="1">
          <mxGeometry relative="1" as="geometry">
            <mxPoint x="200" y="680" as="sourcePoint" />
            <mxPoint x="200" y="810" as="targetPoint" />
          </mxGeometry>
        </mxCell>
        <mxCell id="5llFC0Dtu4sXykQ68G8s-39" value="Text" style="edgeLabel;html=1;align=center;verticalAlign=middle;resizable=0;points=[];" parent="5llFC0Dtu4sXykQ68G8s-38" vertex="1" connectable="0">
          <mxGeometry x="-0.0154" y="1" relative="1" as="geometry">
            <mxPoint as="offset" />
          </mxGeometry>
        </mxCell>
        <mxCell id="5llFC0Dtu4sXykQ68G8s-40" value="&lt;font style=&quot;font-size: 20px;&quot;&gt;May be useful&lt;/font&gt;" style="edgeLabel;html=1;align=center;verticalAlign=middle;resizable=0;points=[];" parent="5llFC0Dtu4sXykQ68G8s-38" vertex="1" connectable="0">
          <mxGeometry x="-0.0615" y="3" relative="1" as="geometry">
            <mxPoint as="offset" />
          </mxGeometry>
        </mxCell>
        <mxCell id="5llFC0Dtu4sXykQ68G8s-41" style="edgeStyle=orthogonalEdgeStyle;rounded=0;orthogonalLoop=1;jettySize=auto;html=1;exitX=1;exitY=0.5;exitDx=0;exitDy=0;" parent="1" source="5llFC0Dtu4sXykQ68G8s-35" target="5llFC0Dtu4sXykQ68G8s-36" edge="1">
          <mxGeometry relative="1" as="geometry">
            <mxPoint x="210" y="690" as="sourcePoint" />
            <mxPoint x="210" y="820" as="targetPoint" />
          </mxGeometry>
        </mxCell>
        <mxCell id="5llFC0Dtu4sXykQ68G8s-42" value="Text" style="edgeLabel;html=1;align=center;verticalAlign=middle;resizable=0;points=[];" parent="5llFC0Dtu4sXykQ68G8s-41" vertex="1" connectable="0">
          <mxGeometry x="-0.0154" y="1" relative="1" as="geometry">
            <mxPoint as="offset" />
          </mxGeometry>
        </mxCell>
        <mxCell id="5llFC0Dtu4sXykQ68G8s-43" value="&lt;font style=&quot;font-size: 20px;&quot;&gt;Knowns&lt;/font&gt;" style="edgeLabel;html=1;align=center;verticalAlign=middle;resizable=0;points=[];" parent="5llFC0Dtu4sXykQ68G8s-41" vertex="1" connectable="0">
          <mxGeometry x="-0.0615" y="3" relative="1" as="geometry">
            <mxPoint as="offset" />
          </mxGeometry>
        </mxCell>
        <mxCell id="5llFC0Dtu4sXykQ68G8s-44" style="edgeStyle=orthogonalEdgeStyle;rounded=0;orthogonalLoop=1;jettySize=auto;html=1;exitX=0;exitY=0.5;exitDx=0;exitDy=0;" parent="1" source="5llFC0Dtu4sXykQ68G8s-35" target="5llFC0Dtu4sXykQ68G8s-37" edge="1">
          <mxGeometry relative="1" as="geometry">
            <mxPoint x="220" y="700" as="sourcePoint" />
            <mxPoint x="220" y="830" as="targetPoint" />
          </mxGeometry>
        </mxCell>
        <mxCell id="5llFC0Dtu4sXykQ68G8s-45" value="Text" style="edgeLabel;html=1;align=center;verticalAlign=middle;resizable=0;points=[];" parent="5llFC0Dtu4sXykQ68G8s-44" vertex="1" connectable="0">
          <mxGeometry x="-0.0154" y="1" relative="1" as="geometry">
            <mxPoint as="offset" />
          </mxGeometry>
        </mxCell>
        <mxCell id="5llFC0Dtu4sXykQ68G8s-46" value="&lt;span style=&quot;color: rgb(0, 0, 0); font-family: Helvetica; font-size: 20px; font-style: normal; font-variant-ligatures: normal; font-variant-caps: normal; font-weight: 400; letter-spacing: normal; orphans: 2; text-align: center; text-indent: 0px; text-transform: none; widows: 2; word-spacing: 0px; -webkit-text-stroke-width: 0px; background-color: rgb(255, 255, 255); text-decoration-thickness: initial; text-decoration-style: initial; text-decoration-color: initial; float: none; display: inline !important;&quot;&gt;May be useful&lt;/span&gt;" style="edgeLabel;html=1;align=center;verticalAlign=middle;resizable=0;points=[];" parent="5llFC0Dtu4sXykQ68G8s-44" vertex="1" connectable="0">
          <mxGeometry x="-0.0615" y="3" relative="1" as="geometry">
            <mxPoint as="offset" />
          </mxGeometry>
        </mxCell>
        <mxCell id="5llFC0Dtu4sXykQ68G8s-49" value="&lt;font style=&quot;font-size: 20px;&quot;&gt;Source&lt;/font&gt;" style="ellipse;whiteSpace=wrap;html=1;aspect=fixed;" parent="1" vertex="1">
          <mxGeometry x="570" y="1090" width="80" height="80" as="geometry" />
        </mxCell>
        <mxCell id="5llFC0Dtu4sXykQ68G8s-51" value="&lt;font style=&quot;font-size: 20px;&quot;&gt;Source&lt;/font&gt;" style="ellipse;whiteSpace=wrap;html=1;aspect=fixed;" parent="1" vertex="1">
          <mxGeometry x="580" y="1100" width="80" height="80" as="geometry" />
        </mxCell>
        <mxCell id="5llFC0Dtu4sXykQ68G8s-52" value="&lt;font style=&quot;font-size: 20px;&quot;&gt;Source&lt;/font&gt;" style="ellipse;whiteSpace=wrap;html=1;aspect=fixed;" parent="1" vertex="1">
          <mxGeometry x="590" y="1110" width="80" height="80" as="geometry" />
        </mxCell>
        <mxCell id="5llFC0Dtu4sXykQ68G8s-53" value="&lt;font style=&quot;font-size: 20px;&quot;&gt;Source&lt;/font&gt;" style="ellipse;whiteSpace=wrap;html=1;aspect=fixed;" parent="1" vertex="1">
          <mxGeometry x="600" y="1120" width="80" height="80" as="geometry" />
        </mxCell>
        <mxCell id="5llFC0Dtu4sXykQ68G8s-55" style="edgeStyle=orthogonalEdgeStyle;rounded=0;orthogonalLoop=1;jettySize=auto;html=1;exitX=1;exitY=0.5;exitDx=0;exitDy=0;entryX=0;entryY=0.5;entryDx=0;entryDy=0;" parent="1" source="5llFC0Dtu4sXykQ68G8s-36" target="5llFC0Dtu4sXykQ68G8s-49" edge="1">
          <mxGeometry relative="1" as="geometry">
            <mxPoint x="240" y="1050" as="sourcePoint" />
            <mxPoint x="410" y="1100" as="targetPoint" />
          </mxGeometry>
        </mxCell>
        <mxCell id="5llFC0Dtu4sXykQ68G8s-56" value="Text" style="edgeLabel;html=1;align=center;verticalAlign=middle;resizable=0;points=[];" parent="5llFC0Dtu4sXykQ68G8s-55" vertex="1" connectable="0">
          <mxGeometry x="-0.0154" y="1" relative="1" as="geometry">
            <mxPoint as="offset" />
          </mxGeometry>
        </mxCell>
        <mxCell id="5llFC0Dtu4sXykQ68G8s-57" value="&lt;font style=&quot;font-size: 20px;&quot;&gt;Knowns&lt;/font&gt;" style="edgeLabel;html=1;align=center;verticalAlign=middle;resizable=0;points=[];" parent="5llFC0Dtu4sXykQ68G8s-55" vertex="1" connectable="0">
          <mxGeometry x="-0.0615" y="3" relative="1" as="geometry">
            <mxPoint as="offset" />
          </mxGeometry>
        </mxCell>
        <mxCell id="5llFC0Dtu4sXykQ68G8s-58" value="&lt;font style=&quot;font-size: 20px;&quot;&gt;Source&lt;/font&gt;" style="ellipse;whiteSpace=wrap;html=1;aspect=fixed;" parent="1" vertex="1">
          <mxGeometry x="-50" y="1100" width="80" height="80" as="geometry" />
        </mxCell>
        <mxCell id="5llFC0Dtu4sXykQ68G8s-59" value="&lt;font style=&quot;font-size: 20px;&quot;&gt;Source&lt;/font&gt;" style="ellipse;whiteSpace=wrap;html=1;aspect=fixed;" parent="1" vertex="1">
          <mxGeometry x="-40" y="1110" width="80" height="80" as="geometry" />
        </mxCell>
        <mxCell id="5llFC0Dtu4sXykQ68G8s-60" value="&lt;font style=&quot;font-size: 20px;&quot;&gt;Source&lt;/font&gt;" style="ellipse;whiteSpace=wrap;html=1;aspect=fixed;" parent="1" vertex="1">
          <mxGeometry x="-30" y="1120" width="80" height="80" as="geometry" />
        </mxCell>
        <mxCell id="5llFC0Dtu4sXykQ68G8s-61" value="&lt;font style=&quot;font-size: 20px;&quot;&gt;Source&lt;/font&gt;" style="ellipse;whiteSpace=wrap;html=1;aspect=fixed;" parent="1" vertex="1">
          <mxGeometry x="-20" y="1130" width="80" height="80" as="geometry" />
        </mxCell>
        <mxCell id="5llFC0Dtu4sXykQ68G8s-62" value="&lt;font style=&quot;font-size: 20px;&quot;&gt;Engine&lt;/font&gt;" style="whiteSpace=wrap;html=1;aspect=fixed;" parent="1" vertex="1">
          <mxGeometry x="150" y="1510" width="80" height="80" as="geometry" />
        </mxCell>
        <mxCell id="5llFC0Dtu4sXykQ68G8s-63" value="&lt;font style=&quot;font-size: 18px;&quot;&gt;Train towards Gent&lt;br&gt;Arriving after 19u30&lt;br&gt;&lt;/font&gt;" style="whiteSpace=wrap;html=1;shape=mxgraph.basic.roundRectCallout;dx=30;dy=15;size=5;boundedLbl=1;" parent="1" vertex="1">
          <mxGeometry x="250" y="1420" width="160" height="110" as="geometry" />
        </mxCell>
        <mxCell id="5llFC0Dtu4sXykQ68G8s-71" style="edgeStyle=orthogonalEdgeStyle;rounded=0;orthogonalLoop=1;jettySize=auto;html=1;entryX=0.5;entryY=0;entryDx=0;entryDy=0;" parent="1" edge="1">
          <mxGeometry relative="1" as="geometry">
            <mxPoint x="150.00000000000045" y="1770" as="sourcePoint" />
            <mxPoint x="20.000000000000455" y="1880" as="targetPoint" />
          </mxGeometry>
        </mxCell>
        <mxCell id="5llFC0Dtu4sXykQ68G8s-74" value="&lt;font style=&quot;font-size: 20px;&quot;&gt;Towards Antwerpen&lt;/font&gt;" style="edgeLabel;html=1;align=center;verticalAlign=middle;resizable=0;points=[];" parent="5llFC0Dtu4sXykQ68G8s-71" vertex="1" connectable="0">
          <mxGeometry x="0.3574" y="3" relative="1" as="geometry">
            <mxPoint x="-3" y="37" as="offset" />
          </mxGeometry>
        </mxCell>
        <mxCell id="5llFC0Dtu4sXykQ68G8s-72" style="edgeStyle=orthogonalEdgeStyle;rounded=0;orthogonalLoop=1;jettySize=auto;html=1;" parent="1" source="5llFC0Dtu4sXykQ68G8s-64" target="5llFC0Dtu4sXykQ68G8s-69" edge="1">
          <mxGeometry relative="1" as="geometry" />
        </mxCell>
        <mxCell id="5llFC0Dtu4sXykQ68G8s-75" value="&lt;font style=&quot;font-size: 20px;&quot;&gt;Toward Gent&lt;/font&gt;" style="edgeLabel;html=1;align=center;verticalAlign=middle;resizable=0;points=[];" parent="5llFC0Dtu4sXykQ68G8s-72" vertex="1" connectable="0">
          <mxGeometry x="-0.0286" y="-3" relative="1" as="geometry">
            <mxPoint x="3" as="offset" />
          </mxGeometry>
        </mxCell>
        <mxCell id="5llFC0Dtu4sXykQ68G8s-73" style="edgeStyle=orthogonalEdgeStyle;rounded=0;orthogonalLoop=1;jettySize=auto;html=1;entryX=0.5;entryY=0;entryDx=0;entryDy=0;" parent="1" source="5llFC0Dtu4sXykQ68G8s-64" target="5llFC0Dtu4sXykQ68G8s-70" edge="1">
          <mxGeometry relative="1" as="geometry" />
        </mxCell>
        <mxCell id="5llFC0Dtu4sXykQ68G8s-76" value="&lt;font style=&quot;font-size: 20px;&quot;&gt;Toward Brussels&lt;/font&gt;" style="edgeLabel;html=1;align=center;verticalAlign=middle;resizable=0;points=[];" parent="5llFC0Dtu4sXykQ68G8s-73" vertex="1" connectable="0">
          <mxGeometry x="0.4542" relative="1" as="geometry">
            <mxPoint y="18" as="offset" />
          </mxGeometry>
        </mxCell>
        <mxCell id="5llFC0Dtu4sXykQ68G8s-64" value="&lt;font style=&quot;font-size: 20px;&quot;&gt;Source&lt;/font&gt;" style="ellipse;whiteSpace=wrap;html=1;aspect=fixed;" parent="1" vertex="1">
          <mxGeometry x="150" y="1730" width="80" height="80" as="geometry" />
        </mxCell>
        <mxCell id="5llFC0Dtu4sXykQ68G8s-65" style="edgeStyle=orthogonalEdgeStyle;rounded=0;orthogonalLoop=1;jettySize=auto;html=1;exitX=0.5;exitY=1;exitDx=0;exitDy=0;entryX=0.5;entryY=0;entryDx=0;entryDy=0;" parent="1" source="5llFC0Dtu4sXykQ68G8s-62" target="5llFC0Dtu4sXykQ68G8s-64" edge="1">
          <mxGeometry relative="1" as="geometry">
            <mxPoint x="240" y="1050" as="sourcePoint" />
            <mxPoint x="410" y="1100" as="targetPoint" />
          </mxGeometry>
        </mxCell>
        <mxCell id="5llFC0Dtu4sXykQ68G8s-66" value="Text" style="edgeLabel;html=1;align=center;verticalAlign=middle;resizable=0;points=[];" parent="5llFC0Dtu4sXykQ68G8s-65" vertex="1" connectable="0">
          <mxGeometry x="-0.0154" y="1" relative="1" as="geometry">
            <mxPoint as="offset" />
          </mxGeometry>
        </mxCell>
        <mxCell id="5llFC0Dtu4sXykQ68G8s-67" value="&lt;font style=&quot;font-size: 20px;&quot;&gt;Knowns&lt;/font&gt;" style="edgeLabel;html=1;align=center;verticalAlign=middle;resizable=0;points=[];" parent="5llFC0Dtu4sXykQ68G8s-65" vertex="1" connectable="0">
          <mxGeometry x="-0.0615" y="3" relative="1" as="geometry">
            <mxPoint as="offset" />
          </mxGeometry>
        </mxCell>
        <mxCell id="5llFC0Dtu4sXykQ68G8s-68" value="&lt;font style=&quot;font-size: 20px;&quot;&gt;Source&lt;/font&gt;" style="ellipse;whiteSpace=wrap;html=1;aspect=fixed;" parent="1" vertex="1">
          <mxGeometry x="-20" y="1880" width="80" height="80" as="geometry" />
        </mxCell>
        <mxCell id="5llFC0Dtu4sXykQ68G8s-84" style="edgeStyle=orthogonalEdgeStyle;rounded=0;orthogonalLoop=1;jettySize=auto;html=1;" parent="1" source="5llFC0Dtu4sXykQ68G8s-69" target="5llFC0Dtu4sXykQ68G8s-77" edge="1">
          <mxGeometry relative="1" as="geometry" />
        </mxCell>
        <mxCell id="5llFC0Dtu4sXykQ68G8s-85" value="&lt;font style=&quot;font-size: 20px;&quot;&gt;Arriving after 10u30&lt;/font&gt;" style="edgeLabel;html=1;align=center;verticalAlign=middle;resizable=0;points=[];" parent="5llFC0Dtu4sXykQ68G8s-84" vertex="1" connectable="0">
          <mxGeometry x="-0.2889" y="-2" relative="1" as="geometry">
            <mxPoint as="offset" />
          </mxGeometry>
        </mxCell>
        <mxCell id="5llFC0Dtu4sXykQ68G8s-69" value="&lt;font style=&quot;font-size: 20px;&quot;&gt;Source&lt;/font&gt;" style="ellipse;whiteSpace=wrap;html=1;aspect=fixed;" parent="1" vertex="1">
          <mxGeometry x="150" y="1930" width="80" height="80" as="geometry" />
        </mxCell>
        <mxCell id="5llFC0Dtu4sXykQ68G8s-70" value="&lt;font style=&quot;font-size: 20px;&quot;&gt;Source&lt;/font&gt;" style="ellipse;whiteSpace=wrap;html=1;aspect=fixed;" parent="1" vertex="1">
          <mxGeometry x="330" y="1880" width="80" height="80" as="geometry" />
        </mxCell>
        <mxCell id="5llFC0Dtu4sXykQ68G8s-87" style="edgeStyle=orthogonalEdgeStyle;rounded=0;orthogonalLoop=1;jettySize=auto;html=1;" parent="1" source="5llFC0Dtu4sXykQ68G8s-77" target="5llFC0Dtu4sXykQ68G8s-86" edge="1">
          <mxGeometry relative="1" as="geometry" />
        </mxCell>
        <mxCell id="5llFC0Dtu4sXykQ68G8s-88" value="&lt;font style=&quot;font-size: 20px;&quot;&gt;Arriving after 18u30&lt;/font&gt;" style="edgeLabel;html=1;align=center;verticalAlign=middle;resizable=0;points=[];" parent="5llFC0Dtu4sXykQ68G8s-87" vertex="1" connectable="0">
          <mxGeometry x="0.0025" y="-3" relative="1" as="geometry">
            <mxPoint as="offset" />
          </mxGeometry>
        </mxCell>
        <mxCell id="5llFC0Dtu4sXykQ68G8s-77" value="&lt;font style=&quot;font-size: 20px;&quot;&gt;Source&lt;/font&gt;" style="ellipse;whiteSpace=wrap;html=1;aspect=fixed;" parent="1" vertex="1">
          <mxGeometry x="150" y="2090" width="80" height="80" as="geometry" />
        </mxCell>
        <mxCell id="5llFC0Dtu4sXykQ68G8s-78" value="&lt;font style=&quot;font-size: 20px;&quot;&gt;Source&lt;/font&gt;" style="ellipse;whiteSpace=wrap;html=1;aspect=fixed;" parent="1" vertex="1">
          <mxGeometry x="340" y="1890" width="80" height="80" as="geometry" />
        </mxCell>
        <mxCell id="5llFC0Dtu4sXykQ68G8s-79" value="&lt;font style=&quot;font-size: 20px;&quot;&gt;Source&lt;/font&gt;" style="ellipse;whiteSpace=wrap;html=1;aspect=fixed;" parent="1" vertex="1">
          <mxGeometry x="350" y="1900" width="80" height="80" as="geometry" />
        </mxCell>
        <mxCell id="5llFC0Dtu4sXykQ68G8s-80" value="&lt;font style=&quot;font-size: 20px;&quot;&gt;Source&lt;/font&gt;" style="ellipse;whiteSpace=wrap;html=1;aspect=fixed;" parent="1" vertex="1">
          <mxGeometry x="360" y="1910" width="80" height="80" as="geometry" />
        </mxCell>
        <mxCell id="5llFC0Dtu4sXykQ68G8s-81" value="&lt;font style=&quot;font-size: 20px;&quot;&gt;Source&lt;/font&gt;" style="ellipse;whiteSpace=wrap;html=1;aspect=fixed;" parent="1" vertex="1">
          <mxGeometry x="-10" y="1890" width="80" height="80" as="geometry" />
        </mxCell>
        <mxCell id="5llFC0Dtu4sXykQ68G8s-82" value="&lt;font style=&quot;font-size: 20px;&quot;&gt;Source&lt;/font&gt;" style="ellipse;whiteSpace=wrap;html=1;aspect=fixed;" parent="1" vertex="1">
          <mxGeometry y="1900" width="80" height="80" as="geometry" />
        </mxCell>
        <mxCell id="5llFC0Dtu4sXykQ68G8s-83" value="&lt;font style=&quot;font-size: 20px;&quot;&gt;Source&lt;/font&gt;" style="ellipse;whiteSpace=wrap;html=1;aspect=fixed;" parent="1" vertex="1">
          <mxGeometry x="10" y="1910" width="80" height="80" as="geometry" />
        </mxCell>
        <mxCell id="5llFC0Dtu4sXykQ68G8s-90" style="edgeStyle=orthogonalEdgeStyle;rounded=0;orthogonalLoop=1;jettySize=auto;html=1;" parent="1" source="5llFC0Dtu4sXykQ68G8s-86" target="5llFC0Dtu4sXykQ68G8s-89" edge="1">
          <mxGeometry relative="1" as="geometry" />
        </mxCell>
        <mxCell id="5llFC0Dtu4sXykQ68G8s-92" value="&lt;font style=&quot;font-size: 20px;&quot;&gt;Arriving after 20u30&lt;/font&gt;" style="edgeLabel;html=1;align=center;verticalAlign=middle;resizable=0;points=[];" parent="5llFC0Dtu4sXykQ68G8s-90" vertex="1" connectable="0">
          <mxGeometry x="-0.0311" y="-2" relative="1" as="geometry">
            <mxPoint as="offset" />
          </mxGeometry>
        </mxCell>
        <mxCell id="5llFC0Dtu4sXykQ68G8s-86" value="&lt;font style=&quot;font-size: 20px;&quot;&gt;Source&lt;/font&gt;" style="ellipse;whiteSpace=wrap;html=1;aspect=fixed;" parent="1" vertex="1">
          <mxGeometry x="150" y="2290" width="80" height="80" as="geometry" />
        </mxCell>
        <mxCell id="5llFC0Dtu4sXykQ68G8s-89" value="&lt;font style=&quot;font-size: 20px;&quot;&gt;Source&lt;/font&gt;" style="ellipse;whiteSpace=wrap;html=1;aspect=fixed;" parent="1" vertex="1">
          <mxGeometry x="150" y="2470" width="80" height="80" as="geometry" />
        </mxCell>
        <mxCell id="5llFC0Dtu4sXykQ68G8s-93" value="&lt;font style=&quot;font-size: 20px;&quot;&gt;Engine&lt;/font&gt;" style="whiteSpace=wrap;html=1;aspect=fixed;" parent="1" vertex="1">
          <mxGeometry x="940" y="1550" width="80" height="80" as="geometry" />
        </mxCell>
        <mxCell id="5llFC0Dtu4sXykQ68G8s-94" value="&lt;font style=&quot;font-size: 18px;&quot;&gt;Train towards Gent&lt;br&gt;Arriving after 19u30&lt;br&gt;&lt;/font&gt;" style="whiteSpace=wrap;html=1;shape=mxgraph.basic.roundRectCallout;dx=30;dy=15;size=5;boundedLbl=1;" parent="1" vertex="1">
          <mxGeometry x="1040" y="1460" width="160" height="110" as="geometry" />
        </mxCell>
        <mxCell id="5llFC0Dtu4sXykQ68G8s-95" value="&lt;font style=&quot;font-size: 20px;&quot;&gt;Source&lt;/font&gt;" style="ellipse;whiteSpace=wrap;html=1;aspect=fixed;" parent="1" vertex="1">
          <mxGeometry x="765" y="1865" width="80" height="80" as="geometry" />
        </mxCell>
        <mxCell id="5llFC0Dtu4sXykQ68G8s-97" value="&lt;font style=&quot;font-size: 20px;&quot;&gt;Source&lt;/font&gt;" style="ellipse;whiteSpace=wrap;html=1;aspect=fixed;" parent="1" vertex="1">
          <mxGeometry x="780" y="1730" width="80" height="80" as="geometry" />
        </mxCell>
        <mxCell id="5llFC0Dtu4sXykQ68G8s-98" value="&lt;font style=&quot;font-size: 20px;&quot;&gt;Source&lt;/font&gt;" style="ellipse;whiteSpace=wrap;html=1;aspect=fixed;" parent="1" vertex="1">
          <mxGeometry x="993" y="1730" width="80" height="80" as="geometry" />
        </mxCell>
        <mxCell id="5llFC0Dtu4sXykQ68G8s-100" style="edgeStyle=orthogonalEdgeStyle;rounded=0;orthogonalLoop=1;jettySize=auto;html=1;exitX=0;exitY=0.5;exitDx=0;exitDy=0;entryX=0.5;entryY=0;entryDx=0;entryDy=0;" parent="1" source="5llFC0Dtu4sXykQ68G8s-93" target="5llFC0Dtu4sXykQ68G8s-97" edge="1">
          <mxGeometry relative="1" as="geometry">
            <mxPoint x="200" y="1600" as="sourcePoint" />
            <mxPoint x="200" y="1740" as="targetPoint" />
          </mxGeometry>
        </mxCell>
        <mxCell id="5llFC0Dtu4sXykQ68G8s-101" value="Text" style="edgeLabel;html=1;align=center;verticalAlign=middle;resizable=0;points=[];" parent="5llFC0Dtu4sXykQ68G8s-100" vertex="1" connectable="0">
          <mxGeometry x="-0.0154" y="1" relative="1" as="geometry">
            <mxPoint as="offset" />
          </mxGeometry>
        </mxCell>
        <mxCell id="5llFC0Dtu4sXykQ68G8s-102" value="&lt;font style=&quot;font-size: 20px;&quot;&gt;Knowns&lt;/font&gt;" style="edgeLabel;html=1;align=center;verticalAlign=middle;resizable=0;points=[];" parent="5llFC0Dtu4sXykQ68G8s-100" vertex="1" connectable="0">
          <mxGeometry x="-0.0615" y="3" relative="1" as="geometry">
            <mxPoint as="offset" />
          </mxGeometry>
        </mxCell>
        <mxCell id="5llFC0Dtu4sXykQ68G8s-111" value="&lt;font style=&quot;font-size: 20px;&quot;&gt;Source&lt;/font&gt;" style="ellipse;whiteSpace=wrap;html=1;aspect=fixed;" parent="1" vertex="1">
          <mxGeometry x="1207" y="1730" width="80" height="80" as="geometry" />
        </mxCell>
        <mxCell id="5llFC0Dtu4sXykQ68G8s-112" value="&lt;font style=&quot;font-size: 20px;&quot;&gt;Source&lt;/font&gt;" style="ellipse;whiteSpace=wrap;html=1;aspect=fixed;" parent="1" vertex="1">
          <mxGeometry x="1420" y="1730" width="80" height="80" as="geometry" />
        </mxCell>
        <mxCell id="5llFC0Dtu4sXykQ68G8s-113" style="edgeStyle=orthogonalEdgeStyle;rounded=0;orthogonalLoop=1;jettySize=auto;html=1;exitX=1;exitY=0.5;exitDx=0;exitDy=0;entryX=0;entryY=0.5;entryDx=0;entryDy=0;" parent="1" source="5llFC0Dtu4sXykQ68G8s-97" target="5llFC0Dtu4sXykQ68G8s-98" edge="1">
          <mxGeometry relative="1" as="geometry">
            <mxPoint x="200" y="1600" as="sourcePoint" />
            <mxPoint x="200" y="1740" as="targetPoint" />
          </mxGeometry>
        </mxCell>
        <mxCell id="5llFC0Dtu4sXykQ68G8s-114" value="Text" style="edgeLabel;html=1;align=center;verticalAlign=middle;resizable=0;points=[];" parent="5llFC0Dtu4sXykQ68G8s-113" vertex="1" connectable="0">
          <mxGeometry x="-0.0154" y="1" relative="1" as="geometry">
            <mxPoint as="offset" />
          </mxGeometry>
        </mxCell>
        <mxCell id="5llFC0Dtu4sXykQ68G8s-115" value="&lt;font style=&quot;font-size: 20px;&quot;&gt;Knowns&lt;/font&gt;" style="edgeLabel;html=1;align=center;verticalAlign=middle;resizable=0;points=[];" parent="5llFC0Dtu4sXykQ68G8s-113" vertex="1" connectable="0">
          <mxGeometry x="-0.0615" y="3" relative="1" as="geometry">
            <mxPoint as="offset" />
          </mxGeometry>
        </mxCell>
        <mxCell id="5llFC0Dtu4sXykQ68G8s-116" style="edgeStyle=orthogonalEdgeStyle;rounded=0;orthogonalLoop=1;jettySize=auto;html=1;" parent="1" target="5llFC0Dtu4sXykQ68G8s-111" edge="1">
          <mxGeometry relative="1" as="geometry">
            <mxPoint x="1080" y="1770" as="sourcePoint" />
            <mxPoint x="1010" y="1780" as="targetPoint" />
          </mxGeometry>
        </mxCell>
        <mxCell id="5llFC0Dtu4sXykQ68G8s-117" value="Text" style="edgeLabel;html=1;align=center;verticalAlign=middle;resizable=0;points=[];" parent="5llFC0Dtu4sXykQ68G8s-116" vertex="1" connectable="0">
          <mxGeometry x="-0.0154" y="1" relative="1" as="geometry">
            <mxPoint as="offset" />
          </mxGeometry>
        </mxCell>
        <mxCell id="5llFC0Dtu4sXykQ68G8s-118" value="&lt;font style=&quot;font-size: 20px;&quot;&gt;Knowns&lt;/font&gt;" style="edgeLabel;html=1;align=center;verticalAlign=middle;resizable=0;points=[];" parent="5llFC0Dtu4sXykQ68G8s-116" vertex="1" connectable="0">
          <mxGeometry x="-0.0615" y="3" relative="1" as="geometry">
            <mxPoint as="offset" />
          </mxGeometry>
        </mxCell>
        <mxCell id="5llFC0Dtu4sXykQ68G8s-119" style="edgeStyle=orthogonalEdgeStyle;rounded=0;orthogonalLoop=1;jettySize=auto;html=1;" parent="1" target="5llFC0Dtu4sXykQ68G8s-112" edge="1">
          <mxGeometry relative="1" as="geometry">
            <mxPoint x="1300" y="1770" as="sourcePoint" />
            <mxPoint x="1235" y="1780" as="targetPoint" />
          </mxGeometry>
        </mxCell>
        <mxCell id="5llFC0Dtu4sXykQ68G8s-120" value="Text" style="edgeLabel;html=1;align=center;verticalAlign=middle;resizable=0;points=[];" parent="5llFC0Dtu4sXykQ68G8s-119" vertex="1" connectable="0">
          <mxGeometry x="-0.0154" y="1" relative="1" as="geometry">
            <mxPoint as="offset" />
          </mxGeometry>
        </mxCell>
        <mxCell id="5llFC0Dtu4sXykQ68G8s-121" value="&lt;font style=&quot;font-size: 20px;&quot;&gt;Knowns&lt;/font&gt;" style="edgeLabel;html=1;align=center;verticalAlign=middle;resizable=0;points=[];" parent="5llFC0Dtu4sXykQ68G8s-119" vertex="1" connectable="0">
          <mxGeometry x="-0.0615" y="3" relative="1" as="geometry">
            <mxPoint as="offset" />
          </mxGeometry>
        </mxCell>
        <mxCell id="5llFC0Dtu4sXykQ68G8s-122" value="&lt;font style=&quot;font-size: 18px;&quot;&gt;I know train&lt;br&gt;&lt;/font&gt;" style="whiteSpace=wrap;html=1;shape=mxgraph.basic.roundRectCallout;dx=30;dy=15;size=5;boundedLbl=1;" parent="1" vertex="1">
          <mxGeometry x="840" y="1660" width="130" height="80" as="geometry" />
        </mxCell>
        <mxCell id="5llFC0Dtu4sXykQ68G8s-123" value="&lt;font style=&quot;font-size: 18px;&quot;&gt;I know movies&lt;br&gt;and their rating&lt;br&gt;&lt;/font&gt;" style="whiteSpace=wrap;html=1;shape=mxgraph.basic.roundRectCallout;dx=30;dy=15;size=5;boundedLbl=1;" parent="1" vertex="1">
          <mxGeometry x="1040" y="1650" width="130" height="80" as="geometry" />
        </mxCell>
        <mxCell id="5llFC0Dtu4sXykQ68G8s-124" value="&lt;font style=&quot;font-size: 18px;&quot;&gt;I know book of&lt;br&gt;de Krook libray&lt;br&gt;&lt;/font&gt;" style="whiteSpace=wrap;html=1;shape=mxgraph.basic.roundRectCallout;dx=30;dy=15;size=5;boundedLbl=1;" parent="1" vertex="1">
          <mxGeometry x="1260" y="1660" width="130" height="80" as="geometry" />
        </mxCell>
        <mxCell id="5llFC0Dtu4sXykQ68G8s-125" value="&lt;font style=&quot;font-size: 18px;&quot;&gt;I know trains schedule&lt;br&gt;arrival time&lt;br&gt;and&lt;br&gt;departure&lt;br&gt;&lt;/font&gt;" style="whiteSpace=wrap;html=1;shape=mxgraph.basic.roundRectCallout;dx=30;dy=15;size=5;boundedLbl=1;" parent="1" vertex="1">
          <mxGeometry x="1470" y="1610" width="210" height="120" as="geometry" />
        </mxCell>
        <mxCell id="5llFC0Dtu4sXykQ68G8s-126" value="&lt;font style=&quot;font-size: 20px;&quot;&gt;Source&lt;/font&gt;" style="ellipse;whiteSpace=wrap;html=1;aspect=fixed;" parent="1" vertex="1">
          <mxGeometry x="775" y="1875" width="80" height="80" as="geometry" />
        </mxCell>
        <mxCell id="5llFC0Dtu4sXykQ68G8s-127" value="&lt;font style=&quot;font-size: 20px;&quot;&gt;Source&lt;/font&gt;" style="ellipse;whiteSpace=wrap;html=1;aspect=fixed;" parent="1" vertex="1">
          <mxGeometry x="785" y="1885" width="80" height="80" as="geometry" />
        </mxCell>
        <mxCell id="5llFC0Dtu4sXykQ68G8s-128" value="&lt;font style=&quot;font-size: 20px;&quot;&gt;Source&lt;/font&gt;" style="ellipse;whiteSpace=wrap;html=1;aspect=fixed;" parent="1" vertex="1">
          <mxGeometry x="795" y="1895" width="80" height="80" as="geometry" />
        </mxCell>
        <mxCell id="5llFC0Dtu4sXykQ68G8s-129" value="&lt;font style=&quot;font-size: 20px;&quot;&gt;Source&lt;/font&gt;" style="ellipse;whiteSpace=wrap;html=1;aspect=fixed;" parent="1" vertex="1">
          <mxGeometry x="978" y="1865" width="80" height="80" as="geometry" />
        </mxCell>
        <mxCell id="5llFC0Dtu4sXykQ68G8s-130" value="&lt;font style=&quot;font-size: 20px;&quot;&gt;Source&lt;/font&gt;" style="ellipse;whiteSpace=wrap;html=1;aspect=fixed;" parent="1" vertex="1">
          <mxGeometry x="988" y="1875" width="80" height="80" as="geometry" />
        </mxCell>
        <mxCell id="5llFC0Dtu4sXykQ68G8s-131" value="&lt;font style=&quot;font-size: 20px;&quot;&gt;Source&lt;/font&gt;" style="ellipse;whiteSpace=wrap;html=1;aspect=fixed;" parent="1" vertex="1">
          <mxGeometry x="998" y="1885" width="80" height="80" as="geometry" />
        </mxCell>
        <mxCell id="5llFC0Dtu4sXykQ68G8s-132" value="&lt;font style=&quot;font-size: 20px;&quot;&gt;Source&lt;/font&gt;" style="ellipse;whiteSpace=wrap;html=1;aspect=fixed;" parent="1" vertex="1">
          <mxGeometry x="1008" y="1895" width="80" height="80" as="geometry" />
        </mxCell>
        <mxCell id="5llFC0Dtu4sXykQ68G8s-133" value="&lt;font style=&quot;font-size: 20px;&quot;&gt;Source&lt;/font&gt;" style="ellipse;whiteSpace=wrap;html=1;aspect=fixed;" parent="1" vertex="1">
          <mxGeometry x="1192" y="1870" width="80" height="80" as="geometry" />
        </mxCell>
        <mxCell id="5llFC0Dtu4sXykQ68G8s-134" value="&lt;font style=&quot;font-size: 20px;&quot;&gt;Source&lt;/font&gt;" style="ellipse;whiteSpace=wrap;html=1;aspect=fixed;" parent="1" vertex="1">
          <mxGeometry x="1202" y="1880" width="80" height="80" as="geometry" />
        </mxCell>
        <mxCell id="5llFC0Dtu4sXykQ68G8s-135" value="&lt;font style=&quot;font-size: 20px;&quot;&gt;Source&lt;/font&gt;" style="ellipse;whiteSpace=wrap;html=1;aspect=fixed;" parent="1" vertex="1">
          <mxGeometry x="1212" y="1890" width="80" height="80" as="geometry" />
        </mxCell>
        <mxCell id="5llFC0Dtu4sXykQ68G8s-136" value="&lt;font style=&quot;font-size: 20px;&quot;&gt;Source&lt;/font&gt;" style="ellipse;whiteSpace=wrap;html=1;aspect=fixed;" parent="1" vertex="1">
          <mxGeometry x="1222" y="1900" width="80" height="80" as="geometry" />
        </mxCell>
        <mxCell id="5llFC0Dtu4sXykQ68G8s-137" value="&lt;font style=&quot;font-size: 20px;&quot;&gt;Source&lt;/font&gt;" style="ellipse;whiteSpace=wrap;html=1;aspect=fixed;" parent="1" vertex="1">
          <mxGeometry x="1405" y="1880" width="80" height="80" as="geometry" />
        </mxCell>
        <mxCell id="5llFC0Dtu4sXykQ68G8s-138" value="&lt;font style=&quot;font-size: 20px;&quot;&gt;Source&lt;/font&gt;" style="ellipse;whiteSpace=wrap;html=1;aspect=fixed;" parent="1" vertex="1">
          <mxGeometry x="1415" y="1890" width="80" height="80" as="geometry" />
        </mxCell>
        <mxCell id="5llFC0Dtu4sXykQ68G8s-139" value="&lt;font style=&quot;font-size: 20px;&quot;&gt;Source&lt;/font&gt;" style="ellipse;whiteSpace=wrap;html=1;aspect=fixed;" parent="1" vertex="1">
          <mxGeometry x="1425" y="1900" width="80" height="80" as="geometry" />
        </mxCell>
        <mxCell id="5llFC0Dtu4sXykQ68G8s-140" value="&lt;font style=&quot;font-size: 20px;&quot;&gt;Source&lt;/font&gt;" style="ellipse;whiteSpace=wrap;html=1;aspect=fixed;" parent="1" vertex="1">
          <mxGeometry x="1435" y="1910" width="80" height="80" as="geometry" />
        </mxCell>
        <mxCell id="5llFC0Dtu4sXykQ68G8s-141" style="edgeStyle=orthogonalEdgeStyle;rounded=0;orthogonalLoop=1;jettySize=auto;html=1;exitX=0.5;exitY=1;exitDx=0;exitDy=0;" parent="1" source="5llFC0Dtu4sXykQ68G8s-97" target="5llFC0Dtu4sXykQ68G8s-127" edge="1">
          <mxGeometry relative="1" as="geometry">
            <mxPoint x="200" y="1600" as="sourcePoint" />
            <mxPoint x="200" y="1740" as="targetPoint" />
          </mxGeometry>
        </mxCell>
        <mxCell id="5llFC0Dtu4sXykQ68G8s-142" value="Text" style="edgeLabel;html=1;align=center;verticalAlign=middle;resizable=0;points=[];" parent="5llFC0Dtu4sXykQ68G8s-141" vertex="1" connectable="0">
          <mxGeometry x="-0.0154" y="1" relative="1" as="geometry">
            <mxPoint as="offset" />
          </mxGeometry>
        </mxCell>
        <mxCell id="5llFC0Dtu4sXykQ68G8s-143" value="&lt;font style=&quot;font-size: 20px;&quot;&gt;Knowns&lt;/font&gt;" style="edgeLabel;html=1;align=center;verticalAlign=middle;resizable=0;points=[];" parent="5llFC0Dtu4sXykQ68G8s-141" vertex="1" connectable="0">
          <mxGeometry x="-0.0615" y="3" relative="1" as="geometry">
            <mxPoint as="offset" />
          </mxGeometry>
        </mxCell>
        <mxCell id="5llFC0Dtu4sXykQ68G8s-147" style="edgeStyle=orthogonalEdgeStyle;rounded=0;orthogonalLoop=1;jettySize=auto;html=1;exitX=0.5;exitY=1;exitDx=0;exitDy=0;entryX=0.5;entryY=0;entryDx=0;entryDy=0;" parent="1" source="5llFC0Dtu4sXykQ68G8s-98" target="5llFC0Dtu4sXykQ68G8s-131" edge="1">
          <mxGeometry relative="1" as="geometry">
            <mxPoint x="830" y="1820" as="sourcePoint" />
            <mxPoint x="835" y="1895" as="targetPoint" />
          </mxGeometry>
        </mxCell>
        <mxCell id="5llFC0Dtu4sXykQ68G8s-148" value="Text" style="edgeLabel;html=1;align=center;verticalAlign=middle;resizable=0;points=[];" parent="5llFC0Dtu4sXykQ68G8s-147" vertex="1" connectable="0">
          <mxGeometry x="-0.0154" y="1" relative="1" as="geometry">
            <mxPoint as="offset" />
          </mxGeometry>
        </mxCell>
        <mxCell id="5llFC0Dtu4sXykQ68G8s-149" value="&lt;font style=&quot;font-size: 20px;&quot;&gt;Knowns&lt;/font&gt;" style="edgeLabel;html=1;align=center;verticalAlign=middle;resizable=0;points=[];" parent="5llFC0Dtu4sXykQ68G8s-147" vertex="1" connectable="0">
          <mxGeometry x="-0.0615" y="3" relative="1" as="geometry">
            <mxPoint as="offset" />
          </mxGeometry>
        </mxCell>
        <mxCell id="5llFC0Dtu4sXykQ68G8s-150" style="edgeStyle=orthogonalEdgeStyle;rounded=0;orthogonalLoop=1;jettySize=auto;html=1;exitX=0.5;exitY=1;exitDx=0;exitDy=0;entryX=0.5;entryY=0;entryDx=0;entryDy=0;" parent="1" source="5llFC0Dtu4sXykQ68G8s-111" target="5llFC0Dtu4sXykQ68G8s-135" edge="1">
          <mxGeometry relative="1" as="geometry">
            <mxPoint x="1043" y="1820" as="sourcePoint" />
            <mxPoint x="1048" y="1895" as="targetPoint" />
          </mxGeometry>
        </mxCell>
        <mxCell id="5llFC0Dtu4sXykQ68G8s-151" value="Text" style="edgeLabel;html=1;align=center;verticalAlign=middle;resizable=0;points=[];" parent="5llFC0Dtu4sXykQ68G8s-150" vertex="1" connectable="0">
          <mxGeometry x="-0.0154" y="1" relative="1" as="geometry">
            <mxPoint as="offset" />
          </mxGeometry>
        </mxCell>
        <mxCell id="5llFC0Dtu4sXykQ68G8s-152" value="&lt;font style=&quot;font-size: 20px;&quot;&gt;Knowns&lt;/font&gt;" style="edgeLabel;html=1;align=center;verticalAlign=middle;resizable=0;points=[];" parent="5llFC0Dtu4sXykQ68G8s-150" vertex="1" connectable="0">
          <mxGeometry x="-0.0615" y="3" relative="1" as="geometry">
            <mxPoint as="offset" />
          </mxGeometry>
        </mxCell>
        <mxCell id="5llFC0Dtu4sXykQ68G8s-153" style="edgeStyle=orthogonalEdgeStyle;rounded=0;orthogonalLoop=1;jettySize=auto;html=1;exitX=0.5;exitY=1;exitDx=0;exitDy=0;entryX=0.5;entryY=0;entryDx=0;entryDy=0;" parent="1" source="5llFC0Dtu4sXykQ68G8s-112" target="5llFC0Dtu4sXykQ68G8s-139" edge="1">
          <mxGeometry relative="1" as="geometry">
            <mxPoint x="1257" y="1820" as="sourcePoint" />
            <mxPoint x="1262" y="1900" as="targetPoint" />
          </mxGeometry>
        </mxCell>
        <mxCell id="5llFC0Dtu4sXykQ68G8s-154" value="Text" style="edgeLabel;html=1;align=center;verticalAlign=middle;resizable=0;points=[];" parent="5llFC0Dtu4sXykQ68G8s-153" vertex="1" connectable="0">
          <mxGeometry x="-0.0154" y="1" relative="1" as="geometry">
            <mxPoint as="offset" />
          </mxGeometry>
        </mxCell>
        <mxCell id="5llFC0Dtu4sXykQ68G8s-155" value="&lt;font style=&quot;font-size: 20px;&quot;&gt;Knowns&lt;/font&gt;" style="edgeLabel;html=1;align=center;verticalAlign=middle;resizable=0;points=[];" parent="5llFC0Dtu4sXykQ68G8s-153" vertex="1" connectable="0">
          <mxGeometry x="-0.0615" y="3" relative="1" as="geometry">
            <mxPoint as="offset" />
          </mxGeometry>
        </mxCell>
        <mxCell id="5llFC0Dtu4sXykQ68G8s-156" style="edgeStyle=orthogonalEdgeStyle;rounded=0;orthogonalLoop=1;jettySize=auto;html=1;entryX=0.5;entryY=0;entryDx=0;entryDy=0;" parent="1" source="5llFC0Dtu4sXykQ68G8s-159" target="5llFC0Dtu4sXykQ68G8s-160" edge="1">
          <mxGeometry relative="1" as="geometry" />
        </mxCell>
        <mxCell id="5llFC0Dtu4sXykQ68G8s-157" value="Text" style="edgeLabel;html=1;align=center;verticalAlign=middle;resizable=0;points=[];" parent="5llFC0Dtu4sXykQ68G8s-156" vertex="1" connectable="0">
          <mxGeometry x="-0.0154" y="1" relative="1" as="geometry">
            <mxPoint as="offset" />
          </mxGeometry>
        </mxCell>
        <mxCell id="5llFC0Dtu4sXykQ68G8s-158" value="&lt;font style=&quot;font-size: 20px;&quot;&gt;Knowns&lt;/font&gt;" style="edgeLabel;html=1;align=center;verticalAlign=middle;resizable=0;points=[];" parent="5llFC0Dtu4sXykQ68G8s-156" vertex="1" connectable="0">
          <mxGeometry x="-0.0615" y="3" relative="1" as="geometry">
            <mxPoint as="offset" />
          </mxGeometry>
        </mxCell>
        <mxCell id="5llFC0Dtu4sXykQ68G8s-159" value="&lt;font style=&quot;font-size: 20px;&quot;&gt;Engine&lt;/font&gt;" style="whiteSpace=wrap;html=1;aspect=fixed;" parent="1" vertex="1">
          <mxGeometry x="2355" y="280" width="80" height="80" as="geometry" />
        </mxCell>
        <mxCell id="5llFC0Dtu4sXykQ68G8s-160" value="&lt;font style=&quot;font-size: 20px;&quot;&gt;Source&lt;/font&gt;" style="ellipse;whiteSpace=wrap;html=1;aspect=fixed;" parent="1" vertex="1">
          <mxGeometry x="2355" y="490" width="80" height="80" as="geometry" />
        </mxCell>
        <mxCell id="5llFC0Dtu4sXykQ68G8s-161" value="&lt;font style=&quot;font-size: 20px;&quot;&gt;Source&lt;/font&gt;" style="ellipse;whiteSpace=wrap;html=1;aspect=fixed;" parent="1" vertex="1">
          <mxGeometry x="2215" y="680" width="80" height="80" as="geometry" />
        </mxCell>
        <mxCell id="5llFC0Dtu4sXykQ68G8s-180" style="edgeStyle=orthogonalEdgeStyle;rounded=0;orthogonalLoop=1;jettySize=auto;html=1;entryX=1;entryY=0.5;entryDx=0;entryDy=0;" parent="1" source="5llFC0Dtu4sXykQ68G8s-162" target="5llFC0Dtu4sXykQ68G8s-161" edge="1">
          <mxGeometry relative="1" as="geometry">
            <Array as="points">
              <mxPoint x="2445" y="720" />
            </Array>
          </mxGeometry>
        </mxCell>
        <mxCell id="5llFC0Dtu4sXykQ68G8s-162" value="&lt;font style=&quot;font-size: 20px;&quot;&gt;Source&lt;/font&gt;" style="ellipse;whiteSpace=wrap;html=1;aspect=fixed;" parent="1" vertex="1">
          <mxGeometry x="2405" y="770" width="80" height="80" as="geometry" />
        </mxCell>
        <mxCell id="5llFC0Dtu4sXykQ68G8s-163" value="&lt;font style=&quot;font-size: 20px;&quot;&gt;Source&lt;/font&gt;" style="ellipse;whiteSpace=wrap;html=1;aspect=fixed;" parent="1" vertex="1">
          <mxGeometry x="2070" y="860" width="80" height="80" as="geometry" />
        </mxCell>
        <mxCell id="5llFC0Dtu4sXykQ68G8s-165" style="edgeStyle=orthogonalEdgeStyle;rounded=0;orthogonalLoop=1;jettySize=auto;html=1;entryX=0.5;entryY=0;entryDx=0;entryDy=0;exitX=0.5;exitY=1;exitDx=0;exitDy=0;" parent="1" source="5llFC0Dtu4sXykQ68G8s-160" target="5llFC0Dtu4sXykQ68G8s-161" edge="1">
          <mxGeometry relative="1" as="geometry">
            <mxPoint x="2405" y="370" as="sourcePoint" />
            <mxPoint x="2405" y="500" as="targetPoint" />
          </mxGeometry>
        </mxCell>
        <mxCell id="5llFC0Dtu4sXykQ68G8s-166" value="Text" style="edgeLabel;html=1;align=center;verticalAlign=middle;resizable=0;points=[];" parent="5llFC0Dtu4sXykQ68G8s-165" vertex="1" connectable="0">
          <mxGeometry x="-0.0154" y="1" relative="1" as="geometry">
            <mxPoint as="offset" />
          </mxGeometry>
        </mxCell>
        <mxCell id="5llFC0Dtu4sXykQ68G8s-167" value="&lt;font style=&quot;font-size: 20px;&quot;&gt;Knowns&lt;/font&gt;" style="edgeLabel;html=1;align=center;verticalAlign=middle;resizable=0;points=[];" parent="5llFC0Dtu4sXykQ68G8s-165" vertex="1" connectable="0">
          <mxGeometry x="-0.0615" y="3" relative="1" as="geometry">
            <mxPoint as="offset" />
          </mxGeometry>
        </mxCell>
        <mxCell id="5llFC0Dtu4sXykQ68G8s-168" style="edgeStyle=orthogonalEdgeStyle;rounded=0;orthogonalLoop=1;jettySize=auto;html=1;exitX=1;exitY=0.5;exitDx=0;exitDy=0;" parent="1" source="5llFC0Dtu4sXykQ68G8s-161" target="5llFC0Dtu4sXykQ68G8s-162" edge="1">
          <mxGeometry relative="1" as="geometry">
            <mxPoint x="2415" y="380" as="sourcePoint" />
            <mxPoint x="2415" y="510" as="targetPoint" />
          </mxGeometry>
        </mxCell>
        <mxCell id="5llFC0Dtu4sXykQ68G8s-169" value="Text" style="edgeLabel;html=1;align=center;verticalAlign=middle;resizable=0;points=[];" parent="5llFC0Dtu4sXykQ68G8s-168" vertex="1" connectable="0">
          <mxGeometry x="-0.0154" y="1" relative="1" as="geometry">
            <mxPoint as="offset" />
          </mxGeometry>
        </mxCell>
        <mxCell id="5llFC0Dtu4sXykQ68G8s-170" value="&lt;font style=&quot;font-size: 20px;&quot;&gt;Knowns&lt;/font&gt;" style="edgeLabel;html=1;align=center;verticalAlign=middle;resizable=0;points=[];" parent="5llFC0Dtu4sXykQ68G8s-168" vertex="1" connectable="0">
          <mxGeometry x="-0.0615" y="3" relative="1" as="geometry">
            <mxPoint as="offset" />
          </mxGeometry>
        </mxCell>
        <mxCell id="5llFC0Dtu4sXykQ68G8s-171" style="edgeStyle=orthogonalEdgeStyle;rounded=0;orthogonalLoop=1;jettySize=auto;html=1;exitX=0.5;exitY=1;exitDx=0;exitDy=0;" parent="1" source="5llFC0Dtu4sXykQ68G8s-161" target="5llFC0Dtu4sXykQ68G8s-163" edge="1">
          <mxGeometry relative="1" as="geometry">
            <mxPoint x="2425" y="390" as="sourcePoint" />
            <mxPoint x="2425" y="520" as="targetPoint" />
          </mxGeometry>
        </mxCell>
        <mxCell id="5llFC0Dtu4sXykQ68G8s-172" value="Text" style="edgeLabel;html=1;align=center;verticalAlign=middle;resizable=0;points=[];" parent="5llFC0Dtu4sXykQ68G8s-171" vertex="1" connectable="0">
          <mxGeometry x="-0.0154" y="1" relative="1" as="geometry">
            <mxPoint as="offset" />
          </mxGeometry>
        </mxCell>
        <mxCell id="5llFC0Dtu4sXykQ68G8s-173" value="&lt;font style=&quot;font-size: 20px;&quot;&gt;Knowns&lt;/font&gt;" style="edgeLabel;html=1;align=center;verticalAlign=middle;resizable=0;points=[];" parent="5llFC0Dtu4sXykQ68G8s-171" vertex="1" connectable="0">
          <mxGeometry x="-0.0615" y="3" relative="1" as="geometry">
            <mxPoint as="offset" />
          </mxGeometry>
        </mxCell>
        <mxCell id="5llFC0Dtu4sXykQ68G8s-181" value="&lt;font style=&quot;font-size: 20px;&quot;&gt;Source&lt;/font&gt;" style="ellipse;whiteSpace=wrap;html=1;aspect=fixed;" parent="1" vertex="1">
          <mxGeometry x="2365" y="500" width="80" height="80" as="geometry" />
        </mxCell>
        <mxCell id="5llFC0Dtu4sXykQ68G8s-182" value="&lt;font style=&quot;font-size: 20px;&quot;&gt;Source&lt;/font&gt;" style="ellipse;whiteSpace=wrap;html=1;aspect=fixed;" parent="1" vertex="1">
          <mxGeometry x="2375" y="510" width="80" height="80" as="geometry" />
        </mxCell>
        <mxCell id="5llFC0Dtu4sXykQ68G8s-183" value="&lt;font style=&quot;font-size: 20px;&quot;&gt;Source&lt;/font&gt;" style="ellipse;whiteSpace=wrap;html=1;aspect=fixed;" parent="1" vertex="1">
          <mxGeometry x="2385" y="520" width="80" height="80" as="geometry" />
        </mxCell>
        <mxCell id="5llFC0Dtu4sXykQ68G8s-184" value="&lt;font style=&quot;font-size: 20px;&quot;&gt;Source&lt;/font&gt;" style="ellipse;whiteSpace=wrap;html=1;aspect=fixed;" parent="1" vertex="1">
          <mxGeometry x="2395" y="530" width="80" height="80" as="geometry" />
        </mxCell>
        <mxCell id="5llFC0Dtu4sXykQ68G8s-185" value="&lt;font style=&quot;font-size: 20px;&quot;&gt;Source&lt;/font&gt;" style="ellipse;whiteSpace=wrap;html=1;aspect=fixed;" parent="1" vertex="1">
          <mxGeometry x="2405" y="540" width="80" height="80" as="geometry" />
        </mxCell>
        <mxCell id="5llFC0Dtu4sXykQ68G8s-186" value="&lt;font style=&quot;font-size: 20px;&quot;&gt;Source&lt;/font&gt;" style="ellipse;whiteSpace=wrap;html=1;aspect=fixed;" parent="1" vertex="1">
          <mxGeometry x="2225" y="690" width="80" height="80" as="geometry" />
        </mxCell>
        <mxCell id="5llFC0Dtu4sXykQ68G8s-187" value="&lt;font style=&quot;font-size: 20px;&quot;&gt;Source&lt;/font&gt;" style="ellipse;whiteSpace=wrap;html=1;aspect=fixed;" parent="1" vertex="1">
          <mxGeometry x="2235" y="700" width="80" height="80" as="geometry" />
        </mxCell>
        <mxCell id="5llFC0Dtu4sXykQ68G8s-188" value="&lt;font style=&quot;font-size: 20px;&quot;&gt;Source&lt;/font&gt;" style="ellipse;whiteSpace=wrap;html=1;aspect=fixed;" parent="1" vertex="1">
          <mxGeometry x="2245" y="710" width="80" height="80" as="geometry" />
        </mxCell>
        <mxCell id="5llFC0Dtu4sXykQ68G8s-189" value="&lt;font style=&quot;font-size: 20px;&quot;&gt;Source&lt;/font&gt;" style="ellipse;whiteSpace=wrap;html=1;aspect=fixed;" parent="1" vertex="1">
          <mxGeometry x="2255" y="720" width="80" height="80" as="geometry" />
        </mxCell>
        <mxCell id="5llFC0Dtu4sXykQ68G8s-190" value="&lt;font style=&quot;font-size: 20px;&quot;&gt;Source&lt;/font&gt;" style="ellipse;whiteSpace=wrap;html=1;aspect=fixed;" parent="1" vertex="1">
          <mxGeometry x="2080" y="870" width="80" height="80" as="geometry" />
        </mxCell>
        <mxCell id="5llFC0Dtu4sXykQ68G8s-191" value="&lt;font style=&quot;font-size: 20px;&quot;&gt;Source&lt;/font&gt;" style="ellipse;whiteSpace=wrap;html=1;aspect=fixed;" parent="1" vertex="1">
          <mxGeometry x="2090" y="880" width="80" height="80" as="geometry" />
        </mxCell>
        <mxCell id="5llFC0Dtu4sXykQ68G8s-192" value="&lt;font style=&quot;font-size: 20px;&quot;&gt;Source&lt;/font&gt;" style="ellipse;whiteSpace=wrap;html=1;aspect=fixed;" parent="1" vertex="1">
          <mxGeometry x="2100" y="890" width="80" height="80" as="geometry" />
        </mxCell>
        <mxCell id="5llFC0Dtu4sXykQ68G8s-193" value="&lt;font style=&quot;font-size: 20px;&quot;&gt;Source&lt;/font&gt;" style="ellipse;whiteSpace=wrap;html=1;aspect=fixed;" parent="1" vertex="1">
          <mxGeometry x="2110" y="900" width="80" height="80" as="geometry" />
        </mxCell>
        <mxCell id="5llFC0Dtu4sXykQ68G8s-194" value="&lt;font style=&quot;font-size: 20px;&quot;&gt;Source&lt;/font&gt;" style="ellipse;whiteSpace=wrap;html=1;aspect=fixed;" parent="1" vertex="1">
          <mxGeometry x="2415" y="780" width="80" height="80" as="geometry" />
        </mxCell>
        <mxCell id="5llFC0Dtu4sXykQ68G8s-195" value="&lt;font style=&quot;font-size: 20px;&quot;&gt;Source&lt;/font&gt;" style="ellipse;whiteSpace=wrap;html=1;aspect=fixed;" parent="1" vertex="1">
          <mxGeometry x="2425" y="790" width="80" height="80" as="geometry" />
        </mxCell>
        <mxCell id="5llFC0Dtu4sXykQ68G8s-196" value="&lt;font style=&quot;font-size: 20px;&quot;&gt;Source&lt;/font&gt;" style="ellipse;whiteSpace=wrap;html=1;aspect=fixed;" parent="1" vertex="1">
          <mxGeometry x="2435" y="800" width="80" height="80" as="geometry" />
        </mxCell>
        <mxCell id="5llFC0Dtu4sXykQ68G8s-197" value="&lt;font style=&quot;font-size: 20px;&quot;&gt;Source&lt;/font&gt;" style="ellipse;whiteSpace=wrap;html=1;aspect=fixed;" parent="1" vertex="1">
          <mxGeometry x="2445" y="810" width="80" height="80" as="geometry" />
        </mxCell>
        <mxCell id="5llFC0Dtu4sXykQ68G8s-198" style="edgeStyle=orthogonalEdgeStyle;rounded=0;orthogonalLoop=1;jettySize=auto;html=1;entryX=0.5;entryY=1;entryDx=0;entryDy=0;" parent="1" source="5llFC0Dtu4sXykQ68G8s-201" target="5llFC0Dtu4sXykQ68G8s-193" edge="1">
          <mxGeometry relative="1" as="geometry">
            <mxPoint x="2150" y="1275" as="targetPoint" />
          </mxGeometry>
        </mxCell>
        <mxCell id="5llFC0Dtu4sXykQ68G8s-199" value="Text" style="edgeLabel;html=1;align=center;verticalAlign=middle;resizable=0;points=[];" parent="5llFC0Dtu4sXykQ68G8s-198" vertex="1" connectable="0">
          <mxGeometry x="-0.0154" y="1" relative="1" as="geometry">
            <mxPoint as="offset" />
          </mxGeometry>
        </mxCell>
        <mxCell id="5llFC0Dtu4sXykQ68G8s-200" value="&lt;font style=&quot;font-size: 20px;&quot;&gt;Knowns&lt;/font&gt;" style="edgeLabel;html=1;align=center;verticalAlign=middle;resizable=0;points=[];" parent="5llFC0Dtu4sXykQ68G8s-198" vertex="1" connectable="0">
          <mxGeometry x="-0.0615" y="3" relative="1" as="geometry">
            <mxPoint as="offset" />
          </mxGeometry>
        </mxCell>
        <mxCell id="5llFC0Dtu4sXykQ68G8s-201" value="&lt;font style=&quot;font-size: 20px;&quot;&gt;Engine&lt;/font&gt;" style="whiteSpace=wrap;html=1;aspect=fixed;" parent="1" vertex="1">
          <mxGeometry x="2110" y="1065" width="80" height="80" as="geometry" />
        </mxCell>
        <mxCell id="5llFC0Dtu4sXykQ68G8s-202" style="edgeStyle=orthogonalEdgeStyle;rounded=0;orthogonalLoop=1;jettySize=auto;html=1;" parent="1" source="5llFC0Dtu4sXykQ68G8s-205" target="5llFC0Dtu4sXykQ68G8s-197" edge="1">
          <mxGeometry relative="1" as="geometry">
            <mxPoint x="2490" y="1150" as="targetPoint" />
          </mxGeometry>
        </mxCell>
        <mxCell id="5llFC0Dtu4sXykQ68G8s-203" value="Text" style="edgeLabel;html=1;align=center;verticalAlign=middle;resizable=0;points=[];" parent="5llFC0Dtu4sXykQ68G8s-202" vertex="1" connectable="0">
          <mxGeometry x="-0.0154" y="1" relative="1" as="geometry">
            <mxPoint as="offset" />
          </mxGeometry>
        </mxCell>
        <mxCell id="5llFC0Dtu4sXykQ68G8s-204" value="&lt;font style=&quot;font-size: 20px;&quot;&gt;Knowns&lt;/font&gt;" style="edgeLabel;html=1;align=center;verticalAlign=middle;resizable=0;points=[];" parent="5llFC0Dtu4sXykQ68G8s-202" vertex="1" connectable="0">
          <mxGeometry x="-0.0615" y="3" relative="1" as="geometry">
            <mxPoint as="offset" />
          </mxGeometry>
        </mxCell>
        <mxCell id="5llFC0Dtu4sXykQ68G8s-205" value="&lt;font style=&quot;font-size: 20px;&quot;&gt;Engine&lt;/font&gt;" style="whiteSpace=wrap;html=1;aspect=fixed;" parent="1" vertex="1">
          <mxGeometry x="2445" y="985" width="80" height="80" as="geometry" />
        </mxCell>
        <mxCell id="5llFC0Dtu4sXykQ68G8s-206" value="&lt;font style=&quot;font-size: 20px;&quot;&gt;Comunication&lt;br&gt;Medium&lt;/font&gt;" style="shape=process;whiteSpace=wrap;html=1;backgroundOutline=1;" parent="1" vertex="1">
          <mxGeometry x="1890" y="655" width="200" height="90" as="geometry" />
        </mxCell>
        <mxCell id="5llFC0Dtu4sXykQ68G8s-207" value="" style="endArrow=none;html=1;rounded=0;entryX=0;entryY=0.5;entryDx=0;entryDy=0;" parent="1" source="5llFC0Dtu4sXykQ68G8s-206" target="5llFC0Dtu4sXykQ68G8s-159" edge="1">
          <mxGeometry width="50" height="50" relative="1" as="geometry">
            <mxPoint x="2130" y="850" as="sourcePoint" />
            <mxPoint x="2180" y="800" as="targetPoint" />
            <Array as="points">
              <mxPoint x="1990" y="320" />
            </Array>
          </mxGeometry>
        </mxCell>
        <mxCell id="5llFC0Dtu4sXykQ68G8s-211" value="&lt;font style=&quot;font-size: 20px;&quot;&gt;Shares&lt;/font&gt;" style="edgeLabel;html=1;align=center;verticalAlign=middle;resizable=0;points=[];" parent="5llFC0Dtu4sXykQ68G8s-207" vertex="1" connectable="0">
          <mxGeometry x="0.3845" y="3" relative="1" as="geometry">
            <mxPoint as="offset" />
          </mxGeometry>
        </mxCell>
        <mxCell id="5llFC0Dtu4sXykQ68G8s-209" value="" style="endArrow=none;html=1;rounded=0;entryX=0.5;entryY=1;entryDx=0;entryDy=0;exitX=0.5;exitY=1;exitDx=0;exitDy=0;" parent="1" source="5llFC0Dtu4sXykQ68G8s-206" target="5llFC0Dtu4sXykQ68G8s-205" edge="1">
          <mxGeometry width="50" height="50" relative="1" as="geometry">
            <mxPoint x="2130" y="850" as="sourcePoint" />
            <mxPoint x="2180" y="800" as="targetPoint" />
            <Array as="points">
              <mxPoint x="1990" y="1190" />
              <mxPoint x="2485" y="1190" />
            </Array>
          </mxGeometry>
        </mxCell>
        <mxCell id="5llFC0Dtu4sXykQ68G8s-212" value="&lt;font style=&quot;font-size: 20px;&quot;&gt;Shares&lt;/font&gt;" style="edgeLabel;html=1;align=center;verticalAlign=middle;resizable=0;points=[];" parent="5llFC0Dtu4sXykQ68G8s-209" vertex="1" connectable="0">
          <mxGeometry x="0.2266" relative="1" as="geometry">
            <mxPoint as="offset" />
          </mxGeometry>
        </mxCell>
        <mxCell id="5llFC0Dtu4sXykQ68G8s-210" value="" style="endArrow=none;html=1;rounded=0;exitX=0;exitY=0.5;exitDx=0;exitDy=0;entryX=0.5;entryY=1;entryDx=0;entryDy=0;" parent="1" source="5llFC0Dtu4sXykQ68G8s-201" target="5llFC0Dtu4sXykQ68G8s-206" edge="1">
          <mxGeometry width="50" height="50" relative="1" as="geometry">
            <mxPoint x="2130" y="850" as="sourcePoint" />
            <mxPoint x="2180" y="800" as="targetPoint" />
            <Array as="points">
              <mxPoint x="1990" y="1105" />
            </Array>
          </mxGeometry>
        </mxCell>
        <mxCell id="5llFC0Dtu4sXykQ68G8s-213" value="&lt;font style=&quot;font-size: 20px;&quot;&gt;Shares&lt;/font&gt;" style="edgeLabel;html=1;align=center;verticalAlign=middle;resizable=0;points=[];" parent="5llFC0Dtu4sXykQ68G8s-210" vertex="1" connectable="0">
          <mxGeometry x="-0.6649" y="1" relative="1" as="geometry">
            <mxPoint x="20" y="-1" as="offset" />
          </mxGeometry>
        </mxCell>
        <mxCell id="C2utaU6OliCcYrub_GN8-3" style="edgeStyle=orthogonalEdgeStyle;rounded=0;orthogonalLoop=1;jettySize=auto;html=1;entryX=0.5;entryY=0;entryDx=0;entryDy=0;" parent="1" source="C2utaU6OliCcYrub_GN8-4" target="C2utaU6OliCcYrub_GN8-7" edge="1">
          <mxGeometry relative="1" as="geometry" />
        </mxCell>
        <mxCell id="C2utaU6OliCcYrub_GN8-4" value="&lt;font style=&quot;font-size: 20px;&quot;&gt;Engine&lt;/font&gt;" style="whiteSpace=wrap;html=1;aspect=fixed;" parent="1" vertex="1">
          <mxGeometry x="2160" y="1460" width="80" height="80" as="geometry" />
        </mxCell>
        <mxCell id="C2utaU6OliCcYrub_GN8-5" style="edgeStyle=orthogonalEdgeStyle;rounded=0;orthogonalLoop=1;jettySize=auto;html=1;entryX=0.5;entryY=0;entryDx=0;entryDy=0;" parent="1" source="C2utaU6OliCcYrub_GN8-7" target="C2utaU6OliCcYrub_GN8-13" edge="1">
          <mxGeometry relative="1" as="geometry" />
        </mxCell>
        <mxCell id="C2utaU6OliCcYrub_GN8-6" value="&lt;font style=&quot;font-size: 20px;&quot;&gt;Knowns&lt;/font&gt;" style="edgeLabel;html=1;align=center;verticalAlign=middle;resizable=0;points=[];" parent="C2utaU6OliCcYrub_GN8-5" vertex="1" connectable="0">
          <mxGeometry x="-0.4698" relative="1" as="geometry">
            <mxPoint x="18" as="offset" />
          </mxGeometry>
        </mxCell>
        <mxCell id="C2utaU6OliCcYrub_GN8-7" value="&lt;font style=&quot;font-size: 20px;&quot;&gt;Source&amp;nbsp;&lt;/font&gt;" style="ellipse;whiteSpace=wrap;html=1;aspect=fixed;fillColor=#d5e8d4;strokeColor=#82b366;" parent="1" vertex="1">
          <mxGeometry x="2160" y="1630" width="80" height="80" as="geometry" />
        </mxCell>
        <mxCell id="C2utaU6OliCcYrub_GN8-8" value="&lt;font style=&quot;font-size: 20px;&quot;&gt;Source&lt;/font&gt;" style="ellipse;whiteSpace=wrap;html=1;aspect=fixed;fillColor=#f8cecc;strokeColor=#b85450;" parent="1" vertex="1">
          <mxGeometry x="1950" y="1820" width="80" height="80" as="geometry" />
        </mxCell>
        <mxCell id="C2utaU6OliCcYrub_GN8-9" value="&lt;font style=&quot;font-size: 20px;&quot;&gt;Source&lt;/font&gt;" style="ellipse;whiteSpace=wrap;html=1;aspect=fixed;" parent="1" vertex="1">
          <mxGeometry x="2190" y="1980" width="80" height="80" as="geometry" />
        </mxCell>
        <mxCell id="C2utaU6OliCcYrub_GN8-10" value="&lt;font style=&quot;font-size: 20px;&quot;&gt;Source&lt;/font&gt;" style="ellipse;whiteSpace=wrap;html=1;aspect=fixed;" parent="1" vertex="1">
          <mxGeometry x="1950" y="2030" width="80" height="80" as="geometry" />
        </mxCell>
        <mxCell id="C2utaU6OliCcYrub_GN8-11" style="edgeStyle=orthogonalEdgeStyle;rounded=0;orthogonalLoop=1;jettySize=auto;html=1;entryX=1;entryY=0.5;entryDx=0;entryDy=0;" parent="1" source="C2utaU6OliCcYrub_GN8-13" target="C2utaU6OliCcYrub_GN8-9" edge="1">
          <mxGeometry relative="1" as="geometry">
            <Array as="points">
              <mxPoint x="2415" y="2020" />
            </Array>
          </mxGeometry>
        </mxCell>
        <mxCell id="C2utaU6OliCcYrub_GN8-12" value="&lt;span style=&quot;font-size: 20px;&quot;&gt;Likes&lt;br&gt;&lt;/span&gt;" style="edgeLabel;html=1;align=center;verticalAlign=middle;resizable=0;points=[];" parent="C2utaU6OliCcYrub_GN8-11" vertex="1" connectable="0">
          <mxGeometry x="-0.5034" y="-3" relative="1" as="geometry">
            <mxPoint y="-1" as="offset" />
          </mxGeometry>
        </mxCell>
        <mxCell id="C2utaU6OliCcYrub_GN8-13" value="&lt;font style=&quot;font-size: 20px;&quot;&gt;Source&lt;/font&gt;" style="ellipse;whiteSpace=wrap;html=1;aspect=fixed;" parent="1" vertex="1">
          <mxGeometry x="2375" y="1700" width="80" height="80" as="geometry" />
        </mxCell>
        <mxCell id="C2utaU6OliCcYrub_GN8-14" style="edgeStyle=orthogonalEdgeStyle;rounded=0;orthogonalLoop=1;jettySize=auto;html=1;entryX=0.5;entryY=0;entryDx=0;entryDy=0;exitX=0;exitY=0.5;exitDx=0;exitDy=0;" parent="1" source="C2utaU6OliCcYrub_GN8-7" target="C2utaU6OliCcYrub_GN8-8" edge="1">
          <mxGeometry relative="1" as="geometry">
            <mxPoint x="2210" y="1510" as="sourcePoint" />
            <mxPoint x="2210" y="1640" as="targetPoint" />
          </mxGeometry>
        </mxCell>
        <mxCell id="C2utaU6OliCcYrub_GN8-15" value="Text" style="edgeLabel;html=1;align=center;verticalAlign=middle;resizable=0;points=[];" parent="C2utaU6OliCcYrub_GN8-14" vertex="1" connectable="0">
          <mxGeometry x="-0.0154" y="1" relative="1" as="geometry">
            <mxPoint as="offset" />
          </mxGeometry>
        </mxCell>
        <mxCell id="C2utaU6OliCcYrub_GN8-16" value="&lt;span style=&quot;font-size: 20px;&quot;&gt;Is friend&lt;br&gt;&lt;/span&gt;" style="edgeLabel;html=1;align=center;verticalAlign=middle;resizable=0;points=[];" parent="C2utaU6OliCcYrub_GN8-14" vertex="1" connectable="0">
          <mxGeometry x="-0.0615" y="3" relative="1" as="geometry">
            <mxPoint as="offset" />
          </mxGeometry>
        </mxCell>
        <mxCell id="C2utaU6OliCcYrub_GN8-17" style="edgeStyle=orthogonalEdgeStyle;rounded=0;orthogonalLoop=1;jettySize=auto;html=1;exitX=0.5;exitY=1;exitDx=0;exitDy=0;entryX=0.5;entryY=0;entryDx=0;entryDy=0;" parent="1" source="C2utaU6OliCcYrub_GN8-8" target="C2utaU6OliCcYrub_GN8-9" edge="1">
          <mxGeometry relative="1" as="geometry">
            <mxPoint x="2049.999999999959" y="1895" as="sourcePoint" />
            <mxPoint x="2250.000000000001" y="2015" as="targetPoint" />
            <Array as="points">
              <mxPoint x="1990" y="1930" />
              <mxPoint x="2230" y="1930" />
            </Array>
          </mxGeometry>
        </mxCell>
        <mxCell id="C2utaU6OliCcYrub_GN8-18" value="Text" style="edgeLabel;html=1;align=center;verticalAlign=middle;resizable=0;points=[];" parent="C2utaU6OliCcYrub_GN8-17" vertex="1" connectable="0">
          <mxGeometry x="-0.0154" y="1" relative="1" as="geometry">
            <mxPoint as="offset" />
          </mxGeometry>
        </mxCell>
        <mxCell id="C2utaU6OliCcYrub_GN8-19" value="&lt;font style=&quot;font-size: 20px;&quot;&gt;Dislike&lt;/font&gt;" style="edgeLabel;html=1;align=center;verticalAlign=middle;resizable=0;points=[];" parent="C2utaU6OliCcYrub_GN8-17" vertex="1" connectable="0">
          <mxGeometry x="-0.0615" y="3" relative="1" as="geometry">
            <mxPoint as="offset" />
          </mxGeometry>
        </mxCell>
        <mxCell id="C2utaU6OliCcYrub_GN8-20" style="edgeStyle=orthogonalEdgeStyle;rounded=0;orthogonalLoop=1;jettySize=auto;html=1;exitX=0.5;exitY=1;exitDx=0;exitDy=0;" parent="1" source="C2utaU6OliCcYrub_GN8-8" target="C2utaU6OliCcYrub_GN8-10" edge="1">
          <mxGeometry relative="1" as="geometry">
            <mxPoint x="2230" y="1530" as="sourcePoint" />
            <mxPoint x="2230" y="1660" as="targetPoint" />
          </mxGeometry>
        </mxCell>
        <mxCell id="C2utaU6OliCcYrub_GN8-21" value="Text" style="edgeLabel;html=1;align=center;verticalAlign=middle;resizable=0;points=[];" parent="C2utaU6OliCcYrub_GN8-20" vertex="1" connectable="0">
          <mxGeometry x="-0.0154" y="1" relative="1" as="geometry">
            <mxPoint as="offset" />
          </mxGeometry>
        </mxCell>
        <mxCell id="C2utaU6OliCcYrub_GN8-22" value="&lt;font style=&quot;font-size: 20px;&quot;&gt;Knowns&lt;/font&gt;" style="edgeLabel;html=1;align=center;verticalAlign=middle;resizable=0;points=[];" parent="C2utaU6OliCcYrub_GN8-20" vertex="1" connectable="0">
          <mxGeometry x="-0.0615" y="3" relative="1" as="geometry">
            <mxPoint as="offset" />
          </mxGeometry>
        </mxCell>
        <mxCell id="C2utaU6OliCcYrub_GN8-23" value="&lt;font style=&quot;font-size: 18px;&quot;&gt;Who one of my friends dislike?&lt;br&gt;&lt;/font&gt;" style="whiteSpace=wrap;html=1;shape=mxgraph.basic.roundRectCallout;dx=30;dy=15;size=5;boundedLbl=1;" parent="1" vertex="1">
          <mxGeometry x="2245" y="1360" width="160" height="110" as="geometry" />
        </mxCell>
        <mxCell id="C2utaU6OliCcYrub_GN8-24" value="&lt;font style=&quot;font-size: 18px;&quot;&gt;You have access&lt;br&gt;&lt;/font&gt;" style="whiteSpace=wrap;html=1;shape=mxgraph.basic.roundRectCallout;dx=30;dy=15;size=5;boundedLbl=1;" parent="1" vertex="1">
          <mxGeometry x="2245" y="1550" width="125" height="85" as="geometry" />
        </mxCell>
        <mxCell id="C2utaU6OliCcYrub_GN8-25" value="&lt;font style=&quot;font-size: 18px;&quot;&gt;Private information&lt;br&gt;access denied&lt;br&gt;&lt;/font&gt;" style="whiteSpace=wrap;html=1;shape=mxgraph.basic.roundRectCallout;dx=30;dy=15;size=5;boundedLbl=1;" parent="1" vertex="1">
          <mxGeometry x="2037.5" y="1750" width="132.5" height="90" as="geometry" />
        </mxCell>
        <mxCell id="mTMk-PVhZ7UVs3P0eJJf-1" style="edgeStyle=orthogonalEdgeStyle;rounded=0;orthogonalLoop=1;jettySize=auto;html=1;entryX=0.5;entryY=0;entryDx=0;entryDy=0;" parent="1" source="mTMk-PVhZ7UVs3P0eJJf-2" target="mTMk-PVhZ7UVs3P0eJJf-5" edge="1">
          <mxGeometry relative="1" as="geometry" />
        </mxCell>
        <mxCell id="mTMk-PVhZ7UVs3P0eJJf-2" value="&lt;font style=&quot;font-size: 20px;&quot;&gt;Engine&lt;/font&gt;" style="whiteSpace=wrap;html=1;aspect=fixed;" parent="1" vertex="1">
          <mxGeometry x="995" y="2260" width="80" height="80" as="geometry" />
        </mxCell>
        <mxCell id="mTMk-PVhZ7UVs3P0eJJf-3" style="edgeStyle=orthogonalEdgeStyle;rounded=0;orthogonalLoop=1;jettySize=auto;html=1;entryX=0.5;entryY=0;entryDx=0;entryDy=0;" parent="1" source="mTMk-PVhZ7UVs3P0eJJf-5" target="mTMk-PVhZ7UVs3P0eJJf-11" edge="1">
          <mxGeometry relative="1" as="geometry" />
        </mxCell>
        <mxCell id="mTMk-PVhZ7UVs3P0eJJf-4" value="&lt;font style=&quot;font-size: 20px;&quot;&gt;Knowns&lt;/font&gt;" style="edgeLabel;html=1;align=center;verticalAlign=middle;resizable=0;points=[];" parent="mTMk-PVhZ7UVs3P0eJJf-3" vertex="1" connectable="0">
          <mxGeometry x="-0.4698" relative="1" as="geometry">
            <mxPoint x="18" as="offset" />
          </mxGeometry>
        </mxCell>
        <mxCell id="mTMk-PVhZ7UVs3P0eJJf-5" value="&lt;font style=&quot;font-size: 20px;&quot;&gt;Source &lt;br&gt;t&lt;/font&gt;" style="ellipse;whiteSpace=wrap;html=1;aspect=fixed;" parent="1" vertex="1">
          <mxGeometry x="995" y="2430" width="80" height="80" as="geometry" />
        </mxCell>
        <mxCell id="mTMk-PVhZ7UVs3P0eJJf-6" value="&lt;font style=&quot;font-size: 20px;&quot;&gt;Source 1&lt;/font&gt;" style="ellipse;whiteSpace=wrap;html=1;aspect=fixed;" parent="1" vertex="1">
          <mxGeometry x="855" y="2620" width="80" height="80" as="geometry" />
        </mxCell>
        <mxCell id="mTMk-PVhZ7UVs3P0eJJf-7" value="&lt;font style=&quot;font-size: 20px;&quot;&gt;Source&lt;/font&gt;" style="ellipse;whiteSpace=wrap;html=1;aspect=fixed;" parent="1" vertex="1">
          <mxGeometry x="1045" y="2710" width="80" height="80" as="geometry" />
        </mxCell>
        <mxCell id="mTMk-PVhZ7UVs3P0eJJf-8" value="&lt;font style=&quot;font-size: 20px;&quot;&gt;Source&lt;/font&gt;" style="ellipse;whiteSpace=wrap;html=1;aspect=fixed;" parent="1" vertex="1">
          <mxGeometry x="855" y="2830" width="80" height="80" as="geometry" />
        </mxCell>
        <mxCell id="mTMk-PVhZ7UVs3P0eJJf-9" style="edgeStyle=orthogonalEdgeStyle;rounded=0;orthogonalLoop=1;jettySize=auto;html=1;entryX=1;entryY=0.5;entryDx=0;entryDy=0;" parent="1" source="mTMk-PVhZ7UVs3P0eJJf-11" target="mTMk-PVhZ7UVs3P0eJJf-7" edge="1">
          <mxGeometry relative="1" as="geometry">
            <Array as="points">
              <mxPoint x="1250" y="2750" />
            </Array>
          </mxGeometry>
        </mxCell>
        <mxCell id="mTMk-PVhZ7UVs3P0eJJf-10" value="&lt;span style=&quot;font-size: 20px;&quot;&gt;Likes&lt;br&gt;&lt;/span&gt;" style="edgeLabel;html=1;align=center;verticalAlign=middle;resizable=0;points=[];" parent="mTMk-PVhZ7UVs3P0eJJf-9" vertex="1" connectable="0">
          <mxGeometry x="-0.5034" y="-3" relative="1" as="geometry">
            <mxPoint y="-1" as="offset" />
          </mxGeometry>
        </mxCell>
        <mxCell id="mTMk-PVhZ7UVs3P0eJJf-11" value="&lt;font style=&quot;font-size: 20px;&quot;&gt;Source 2&lt;/font&gt;" style="ellipse;whiteSpace=wrap;html=1;aspect=fixed;" parent="1" vertex="1">
          <mxGeometry x="1210" y="2500" width="80" height="80" as="geometry" />
        </mxCell>
        <mxCell id="mTMk-PVhZ7UVs3P0eJJf-12" style="edgeStyle=orthogonalEdgeStyle;rounded=0;orthogonalLoop=1;jettySize=auto;html=1;entryX=0.5;entryY=0;entryDx=0;entryDy=0;exitX=0.5;exitY=1;exitDx=0;exitDy=0;" parent="1" source="mTMk-PVhZ7UVs3P0eJJf-5" target="mTMk-PVhZ7UVs3P0eJJf-6" edge="1">
          <mxGeometry relative="1" as="geometry">
            <mxPoint x="1045" y="2310" as="sourcePoint" />
            <mxPoint x="1045" y="2440" as="targetPoint" />
          </mxGeometry>
        </mxCell>
        <mxCell id="mTMk-PVhZ7UVs3P0eJJf-13" value="Text" style="edgeLabel;html=1;align=center;verticalAlign=middle;resizable=0;points=[];" parent="mTMk-PVhZ7UVs3P0eJJf-12" vertex="1" connectable="0">
          <mxGeometry x="-0.0154" y="1" relative="1" as="geometry">
            <mxPoint as="offset" />
          </mxGeometry>
        </mxCell>
        <mxCell id="mTMk-PVhZ7UVs3P0eJJf-14" value="&lt;span style=&quot;font-size: 20px;&quot;&gt;Has a contract&lt;br&gt;&lt;/span&gt;" style="edgeLabel;html=1;align=center;verticalAlign=middle;resizable=0;points=[];" parent="mTMk-PVhZ7UVs3P0eJJf-12" vertex="1" connectable="0">
          <mxGeometry x="-0.0615" y="3" relative="1" as="geometry">
            <mxPoint as="offset" />
          </mxGeometry>
        </mxCell>
        <mxCell id="mTMk-PVhZ7UVs3P0eJJf-15" style="edgeStyle=orthogonalEdgeStyle;rounded=0;orthogonalLoop=1;jettySize=auto;html=1;exitX=1;exitY=0.5;exitDx=0;exitDy=0;" parent="1" source="mTMk-PVhZ7UVs3P0eJJf-6" target="mTMk-PVhZ7UVs3P0eJJf-7" edge="1">
          <mxGeometry relative="1" as="geometry">
            <mxPoint x="1055" y="2320" as="sourcePoint" />
            <mxPoint x="1055" y="2450" as="targetPoint" />
          </mxGeometry>
        </mxCell>
        <mxCell id="mTMk-PVhZ7UVs3P0eJJf-16" value="Text" style="edgeLabel;html=1;align=center;verticalAlign=middle;resizable=0;points=[];" parent="mTMk-PVhZ7UVs3P0eJJf-15" vertex="1" connectable="0">
          <mxGeometry x="-0.0154" y="1" relative="1" as="geometry">
            <mxPoint as="offset" />
          </mxGeometry>
        </mxCell>
        <mxCell id="mTMk-PVhZ7UVs3P0eJJf-17" value="&lt;font style=&quot;font-size: 20px;&quot;&gt;Dislike&lt;/font&gt;" style="edgeLabel;html=1;align=center;verticalAlign=middle;resizable=0;points=[];" parent="mTMk-PVhZ7UVs3P0eJJf-15" vertex="1" connectable="0">
          <mxGeometry x="-0.0615" y="3" relative="1" as="geometry">
            <mxPoint as="offset" />
          </mxGeometry>
        </mxCell>
        <mxCell id="mTMk-PVhZ7UVs3P0eJJf-18" style="edgeStyle=orthogonalEdgeStyle;rounded=0;orthogonalLoop=1;jettySize=auto;html=1;exitX=0.5;exitY=1;exitDx=0;exitDy=0;" parent="1" source="mTMk-PVhZ7UVs3P0eJJf-6" target="mTMk-PVhZ7UVs3P0eJJf-8" edge="1">
          <mxGeometry relative="1" as="geometry">
            <mxPoint x="1065" y="2330" as="sourcePoint" />
            <mxPoint x="1065" y="2460" as="targetPoint" />
          </mxGeometry>
        </mxCell>
        <mxCell id="mTMk-PVhZ7UVs3P0eJJf-19" value="Text" style="edgeLabel;html=1;align=center;verticalAlign=middle;resizable=0;points=[];" parent="mTMk-PVhZ7UVs3P0eJJf-18" vertex="1" connectable="0">
          <mxGeometry x="-0.0154" y="1" relative="1" as="geometry">
            <mxPoint as="offset" />
          </mxGeometry>
        </mxCell>
        <mxCell id="mTMk-PVhZ7UVs3P0eJJf-20" value="&lt;font style=&quot;font-size: 20px;&quot;&gt;Knowns&lt;/font&gt;" style="edgeLabel;html=1;align=center;verticalAlign=middle;resizable=0;points=[];" parent="mTMk-PVhZ7UVs3P0eJJf-18" vertex="1" connectable="0">
          <mxGeometry x="-0.0615" y="3" relative="1" as="geometry">
            <mxPoint as="offset" />
          </mxGeometry>
        </mxCell>
        <mxCell id="mTMk-PVhZ7UVs3P0eJJf-21" value="&lt;font style=&quot;font-size: 20px;&quot;&gt;Source&lt;/font&gt;" style="ellipse;whiteSpace=wrap;html=1;aspect=fixed;strokeColor=#dbd6d6;" parent="1" vertex="1">
          <mxGeometry x="763" y="2230" width="80" height="80" as="geometry" />
        </mxCell>
        <mxCell id="mTMk-PVhZ7UVs3P0eJJf-22" value="&lt;font style=&quot;font-size: 20px;&quot;&gt;Source&lt;/font&gt;" style="ellipse;whiteSpace=wrap;html=1;aspect=fixed;strokeColor=#dbd6d6;" parent="1" vertex="1">
          <mxGeometry x="773" y="2240" width="80" height="80" as="geometry" />
        </mxCell>
        <mxCell id="mTMk-PVhZ7UVs3P0eJJf-23" value="&lt;font style=&quot;font-size: 20px;&quot;&gt;Source&lt;/font&gt;" style="ellipse;whiteSpace=wrap;html=1;aspect=fixed;strokeColor=#dbd6d6;" parent="1" vertex="1">
          <mxGeometry x="783" y="2250" width="80" height="80" as="geometry" />
        </mxCell>
        <mxCell id="mTMk-PVhZ7UVs3P0eJJf-24" value="&lt;font style=&quot;font-size: 20px;&quot;&gt;Source &lt;br&gt;i&lt;/font&gt;" style="ellipse;whiteSpace=wrap;html=1;aspect=fixed;strokeColor=#dbd6d6;" parent="1" vertex="1">
          <mxGeometry x="795" y="2260" width="80" height="80" as="geometry" />
        </mxCell>
        <mxCell id="mTMk-PVhZ7UVs3P0eJJf-29" value="&lt;font style=&quot;font-size: 20px;&quot;&gt;Source 3&lt;/font&gt;" style="whiteSpace=wrap;html=1;aspect=fixed;" parent="1" vertex="1">
          <mxGeometry x="1845" y="3160" width="75" height="75" as="geometry" />
        </mxCell>
        <mxCell id="mTMk-PVhZ7UVs3P0eJJf-30" value="&lt;font style=&quot;font-size: 20px;&quot;&gt;Source 0&lt;/font&gt;" style="whiteSpace=wrap;html=1;aspect=fixed;" parent="1" vertex="1">
          <mxGeometry x="1620" y="3160" width="75" height="75" as="geometry" />
        </mxCell>
        <mxCell id="mTMk-PVhZ7UVs3P0eJJf-31" value="&lt;font style=&quot;font-size: 20px;&quot;&gt;Source 1&lt;/font&gt;" style="whiteSpace=wrap;html=1;aspect=fixed;" parent="1" vertex="1">
          <mxGeometry x="1695" y="3160" width="75" height="75" as="geometry" />
        </mxCell>
        <mxCell id="mTMk-PVhZ7UVs3P0eJJf-32" value="&lt;span style=&quot;font-size: 20px;&quot;&gt;Source&amp;nbsp;&lt;br&gt;2&lt;br&gt;&lt;/span&gt;" style="whiteSpace=wrap;html=1;aspect=fixed;" parent="1" vertex="1">
          <mxGeometry x="1770" y="3160" width="75" height="75" as="geometry" />
        </mxCell>
        <mxCell id="mTMk-PVhZ7UVs3P0eJJf-33" value="&lt;font style=&quot;font-size: 20px;&quot;&gt;Source 3&lt;/font&gt;" style="ellipse;whiteSpace=wrap;html=1;aspect=fixed;" parent="1" vertex="1">
          <mxGeometry x="715" y="2430" width="80" height="80" as="geometry" />
        </mxCell>
        <mxCell id="mTMk-PVhZ7UVs3P0eJJf-34" value="" style="endArrow=none;dashed=1;html=1;dashPattern=1 3;strokeWidth=2;rounded=0;exitX=0;exitY=0.5;exitDx=0;exitDy=0;entryX=1;entryY=0.5;entryDx=0;entryDy=0;" parent="1" source="mTMk-PVhZ7UVs3P0eJJf-5" target="mTMk-PVhZ7UVs3P0eJJf-33" edge="1">
          <mxGeometry width="50" height="50" relative="1" as="geometry">
            <mxPoint x="1370" y="2540" as="sourcePoint" />
            <mxPoint x="1420" y="2490" as="targetPoint" />
          </mxGeometry>
        </mxCell>
        <mxCell id="mTMk-PVhZ7UVs3P0eJJf-35" value="&lt;font style=&quot;font-size: 20px;&quot;&gt;Not reacheable&lt;/font&gt;" style="edgeLabel;html=1;align=center;verticalAlign=middle;resizable=0;points=[];" parent="mTMk-PVhZ7UVs3P0eJJf-34" vertex="1" connectable="0">
          <mxGeometry x="0.231" y="-3" relative="1" as="geometry">
            <mxPoint x="18" y="3" as="offset" />
          </mxGeometry>
        </mxCell>
        <mxCell id="E-T11As_pNnh-dodAa4Y-1" value="&lt;font style=&quot;font-size: 20px;&quot;&gt;Engine&lt;br&gt;0&lt;br&gt;&lt;/font&gt;" style="whiteSpace=wrap;html=1;aspect=fixed;" parent="1" vertex="1">
          <mxGeometry x="1730" y="3060" width="80" height="80" as="geometry" />
        </mxCell>
        <mxCell id="E-T11As_pNnh-dodAa4Y-2" value="&lt;font style=&quot;font-size: 20px;&quot;&gt;Engine&lt;br&gt;3&lt;br&gt;&lt;/font&gt;" style="whiteSpace=wrap;html=1;aspect=fixed;fillColor=#e1d5e7;strokeColor=#9673a6;" parent="1" vertex="1">
          <mxGeometry x="2070" y="2660" width="80" height="80" as="geometry" />
        </mxCell>
        <mxCell id="E-T11As_pNnh-dodAa4Y-3" value="" style="shape=flexArrow;endArrow=classic;html=1;rounded=0;" parent="1" edge="1">
          <mxGeometry width="50" height="50" relative="1" as="geometry">
            <mxPoint x="1770" y="3030" as="sourcePoint" />
            <mxPoint x="1770" y="2960" as="targetPoint" />
          </mxGeometry>
        </mxCell>
        <mxCell id="E-T11As_pNnh-dodAa4Y-4" value="&lt;font style=&quot;font-size: 20px;&quot;&gt;Engine&lt;br&gt;0&lt;br&gt;&lt;/font&gt;" style="whiteSpace=wrap;html=1;aspect=fixed;fillColor=#f8cecc;strokeColor=#b85450;" parent="1" vertex="1">
          <mxGeometry x="1427.5" y="2660" width="80" height="80" as="geometry" />
        </mxCell>
        <mxCell id="E-T11As_pNnh-dodAa4Y-5" value="&lt;font style=&quot;font-size: 20px;&quot;&gt;Engine&lt;br&gt;1&lt;br&gt;&lt;/font&gt;" style="whiteSpace=wrap;html=1;aspect=fixed;fillColor=#d5e8d4;strokeColor=#82b366;" parent="1" vertex="1">
          <mxGeometry x="1620" y="2660" width="80" height="80" as="geometry" />
        </mxCell>
        <mxCell id="E-T11As_pNnh-dodAa4Y-6" value="&lt;font style=&quot;font-size: 20px;&quot;&gt;Engine&lt;br&gt;2&lt;br&gt;&lt;/font&gt;" style="whiteSpace=wrap;html=1;aspect=fixed;fillColor=#fff2cc;strokeColor=#d6b656;" parent="1" vertex="1">
          <mxGeometry x="1825" y="2660" width="80" height="80" as="geometry" />
        </mxCell>
        <mxCell id="E-T11As_pNnh-dodAa4Y-13" value="&lt;font style=&quot;font-size: 20px;&quot;&gt;Source&lt;/font&gt;" style="ellipse;whiteSpace=wrap;html=1;aspect=fixed;fillColor=#f8cecc;strokeColor=#b85450;" parent="1" vertex="1">
          <mxGeometry x="1397.5" y="2800" width="80" height="80" as="geometry" />
        </mxCell>
        <mxCell id="E-T11As_pNnh-dodAa4Y-14" value="&lt;font style=&quot;font-size: 20px;&quot;&gt;Source&lt;/font&gt;" style="ellipse;whiteSpace=wrap;html=1;aspect=fixed;fillColor=#f8cecc;strokeColor=#b85450;" parent="1" vertex="1">
          <mxGeometry x="1407.5" y="2810" width="80" height="80" as="geometry" />
        </mxCell>
        <mxCell id="E-T11As_pNnh-dodAa4Y-15" value="&lt;font style=&quot;font-size: 20px;&quot;&gt;Source&lt;/font&gt;" style="ellipse;whiteSpace=wrap;html=1;aspect=fixed;fillColor=#f8cecc;strokeColor=#b85450;" parent="1" vertex="1">
          <mxGeometry x="1417.5" y="2820" width="80" height="80" as="geometry" />
        </mxCell>
        <mxCell id="E-T11As_pNnh-dodAa4Y-16" value="&lt;font style=&quot;font-size: 20px;&quot;&gt;Source&lt;br&gt;0&lt;br&gt;&lt;/font&gt;" style="ellipse;whiteSpace=wrap;html=1;aspect=fixed;fillColor=#f8cecc;strokeColor=#b85450;" parent="1" vertex="1">
          <mxGeometry x="1427.5" y="2830" width="80" height="80" as="geometry" />
        </mxCell>
        <mxCell id="E-T11As_pNnh-dodAa4Y-18" value="&lt;font style=&quot;font-size: 20px;&quot;&gt;Source&lt;/font&gt;" style="ellipse;whiteSpace=wrap;html=1;aspect=fixed;fillColor=#d5e8d4;strokeColor=#82b366;" parent="1" vertex="1">
          <mxGeometry x="1590" y="2805" width="80" height="80" as="geometry" />
        </mxCell>
        <mxCell id="E-T11As_pNnh-dodAa4Y-19" value="&lt;font style=&quot;font-size: 20px;&quot;&gt;Source&lt;/font&gt;" style="ellipse;whiteSpace=wrap;html=1;aspect=fixed;fillColor=#d5e8d4;strokeColor=#82b366;" parent="1" vertex="1">
          <mxGeometry x="1600" y="2815" width="80" height="80" as="geometry" />
        </mxCell>
        <mxCell id="E-T11As_pNnh-dodAa4Y-20" value="&lt;font style=&quot;font-size: 20px;&quot;&gt;Source&lt;/font&gt;" style="ellipse;whiteSpace=wrap;html=1;aspect=fixed;fillColor=#d5e8d4;strokeColor=#82b366;" parent="1" vertex="1">
          <mxGeometry x="1610" y="2825" width="80" height="80" as="geometry" />
        </mxCell>
        <mxCell id="E-T11As_pNnh-dodAa4Y-21" value="&lt;font style=&quot;font-size: 20px;&quot;&gt;Source&lt;br&gt;1&lt;br&gt;&lt;/font&gt;" style="ellipse;whiteSpace=wrap;html=1;aspect=fixed;fillColor=#d5e8d4;strokeColor=#82b366;" parent="1" vertex="1">
          <mxGeometry x="1620" y="2835" width="80" height="80" as="geometry" />
        </mxCell>
        <mxCell id="E-T11As_pNnh-dodAa4Y-23" value="Link Queue" style="text;html=1;align=center;verticalAlign=middle;resizable=0;points=[];autosize=1;strokeColor=none;fillColor=none;fontSize=20;fontStyle=1" parent="1" vertex="1">
          <mxGeometry x="1705" y="3250" width="130" height="40" as="geometry" />
        </mxCell>
        <mxCell id="E-T11As_pNnh-dodAa4Y-24" value="&lt;font style=&quot;font-size: 20px;&quot;&gt;Source&lt;/font&gt;" style="ellipse;whiteSpace=wrap;html=1;aspect=fixed;fillColor=#fff2cc;strokeColor=#d6b656;" parent="1" vertex="1">
          <mxGeometry x="1795" y="2805" width="80" height="80" as="geometry" />
        </mxCell>
        <mxCell id="E-T11As_pNnh-dodAa4Y-25" value="&lt;font style=&quot;font-size: 20px;&quot;&gt;Source&lt;/font&gt;" style="ellipse;whiteSpace=wrap;html=1;aspect=fixed;fillColor=#fff2cc;strokeColor=#d6b656;" parent="1" vertex="1">
          <mxGeometry x="1805" y="2815" width="80" height="80" as="geometry" />
        </mxCell>
        <mxCell id="E-T11As_pNnh-dodAa4Y-26" value="&lt;font style=&quot;font-size: 20px;&quot;&gt;Source&lt;/font&gt;" style="ellipse;whiteSpace=wrap;html=1;aspect=fixed;fillColor=#fff2cc;strokeColor=#d6b656;" parent="1" vertex="1">
          <mxGeometry x="1815" y="2825" width="80" height="80" as="geometry" />
        </mxCell>
        <mxCell id="E-T11As_pNnh-dodAa4Y-27" value="&lt;font style=&quot;font-size: 20px;&quot;&gt;Source&lt;br&gt;2&lt;br&gt;&lt;/font&gt;" style="ellipse;whiteSpace=wrap;html=1;aspect=fixed;fillColor=#fff2cc;strokeColor=#d6b656;" parent="1" vertex="1">
          <mxGeometry x="1825" y="2835" width="80" height="80" as="geometry" />
        </mxCell>
        <mxCell id="E-T11As_pNnh-dodAa4Y-29" value="&lt;font style=&quot;font-size: 20px;&quot;&gt;Source&lt;br&gt;3&lt;br&gt;&lt;/font&gt;" style="ellipse;whiteSpace=wrap;html=1;aspect=fixed;fillColor=#e1d5e7;strokeColor=#9673a6;" parent="1" vertex="1">
          <mxGeometry x="2040" y="2805" width="80" height="80" as="geometry" />
        </mxCell>
        <mxCell id="E-T11As_pNnh-dodAa4Y-30" value="&lt;font style=&quot;font-size: 20px;&quot;&gt;Source&lt;br&gt;3&lt;br&gt;&lt;/font&gt;" style="ellipse;whiteSpace=wrap;html=1;aspect=fixed;fillColor=#e1d5e7;strokeColor=#9673a6;" parent="1" vertex="1">
          <mxGeometry x="2050" y="2815" width="80" height="80" as="geometry" />
        </mxCell>
        <mxCell id="E-T11As_pNnh-dodAa4Y-31" value="&lt;font style=&quot;font-size: 20px;&quot;&gt;Source&lt;br&gt;3&lt;br&gt;&lt;/font&gt;" style="ellipse;whiteSpace=wrap;html=1;aspect=fixed;fillColor=#e1d5e7;strokeColor=#9673a6;" parent="1" vertex="1">
          <mxGeometry x="2060" y="2825" width="80" height="80" as="geometry" />
        </mxCell>
        <mxCell id="E-T11As_pNnh-dodAa4Y-32" value="&lt;font style=&quot;font-size: 20px;&quot;&gt;Source&lt;br&gt;3&lt;br&gt;&lt;/font&gt;" style="ellipse;whiteSpace=wrap;html=1;aspect=fixed;fillColor=#e1d5e7;strokeColor=#9673a6;" parent="1" vertex="1">
          <mxGeometry x="2070" y="2835" width="80" height="80" as="geometry" />
        </mxCell>
        <mxCell id="E-T11As_pNnh-dodAa4Y-33" style="edgeStyle=orthogonalEdgeStyle;rounded=0;orthogonalLoop=1;jettySize=auto;html=1;" parent="1" source="E-T11As_pNnh-dodAa4Y-2" target="E-T11As_pNnh-dodAa4Y-32" edge="1">
          <mxGeometry relative="1" as="geometry" />
        </mxCell>
        <mxCell id="E-T11As_pNnh-dodAa4Y-17" style="edgeStyle=orthogonalEdgeStyle;rounded=0;orthogonalLoop=1;jettySize=auto;html=1;" parent="1" source="E-T11As_pNnh-dodAa4Y-4" target="E-T11As_pNnh-dodAa4Y-16" edge="1">
          <mxGeometry relative="1" as="geometry" />
        </mxCell>
        <mxCell id="E-T11As_pNnh-dodAa4Y-22" style="edgeStyle=orthogonalEdgeStyle;rounded=0;orthogonalLoop=1;jettySize=auto;html=1;" parent="1" source="E-T11As_pNnh-dodAa4Y-5" target="E-T11As_pNnh-dodAa4Y-21" edge="1">
          <mxGeometry relative="1" as="geometry" />
        </mxCell>
        <mxCell id="E-T11As_pNnh-dodAa4Y-28" style="edgeStyle=orthogonalEdgeStyle;rounded=0;orthogonalLoop=1;jettySize=auto;html=1;" parent="1" source="E-T11As_pNnh-dodAa4Y-6" target="E-T11As_pNnh-dodAa4Y-27" edge="1">
          <mxGeometry relative="1" as="geometry" />
        </mxCell>
        <mxCell id="YZn09tNbRBdKCGk4qxDp-1" style="edgeStyle=orthogonalEdgeStyle;rounded=0;orthogonalLoop=1;jettySize=auto;html=1;entryX=0.5;entryY=0;entryDx=0;entryDy=0;" parent="1" source="YZn09tNbRBdKCGk4qxDp-2" target="YZn09tNbRBdKCGk4qxDp-5" edge="1">
          <mxGeometry relative="1" as="geometry" />
        </mxCell>
        <mxCell id="YZn09tNbRBdKCGk4qxDp-2" value="&lt;font style=&quot;font-size: 20px;&quot;&gt;Engine&lt;/font&gt;" style="whiteSpace=wrap;html=1;aspect=fixed;fillColor=#dae8fc;strokeColor=#6c8ebf;" parent="1" vertex="1">
          <mxGeometry x="3010" y="320" width="80" height="80" as="geometry" />
        </mxCell>
        <mxCell id="YZn09tNbRBdKCGk4qxDp-3" style="edgeStyle=orthogonalEdgeStyle;rounded=0;orthogonalLoop=1;jettySize=auto;html=1;entryX=0.5;entryY=0;entryDx=0;entryDy=0;" parent="1" source="YZn09tNbRBdKCGk4qxDp-5" target="YZn09tNbRBdKCGk4qxDp-11" edge="1">
          <mxGeometry relative="1" as="geometry" />
        </mxCell>
        <mxCell id="YZn09tNbRBdKCGk4qxDp-4" value="&lt;font style=&quot;font-size: 20px;&quot;&gt;Maroc&lt;/font&gt;" style="edgeLabel;html=1;align=center;verticalAlign=middle;resizable=0;points=[];" parent="YZn09tNbRBdKCGk4qxDp-3" vertex="1" connectable="0">
          <mxGeometry x="-0.4698" relative="1" as="geometry">
            <mxPoint x="18" as="offset" />
          </mxGeometry>
        </mxCell>
        <mxCell id="YZn09tNbRBdKCGk4qxDp-5" value="&lt;font style=&quot;font-size: 20px;&quot;&gt;Source&lt;/font&gt;" style="ellipse;whiteSpace=wrap;html=1;aspect=fixed;" parent="1" vertex="1">
          <mxGeometry x="3010" y="490" width="80" height="80" as="geometry" />
        </mxCell>
        <mxCell id="YZn09tNbRBdKCGk4qxDp-26" value="&lt;font style=&quot;font-size: 20px;&quot;&gt;Cuba&lt;/font&gt;" style="edgeStyle=orthogonalEdgeStyle;rounded=0;orthogonalLoop=1;jettySize=auto;html=1;" parent="1" source="YZn09tNbRBdKCGk4qxDp-6" target="YZn09tNbRBdKCGk4qxDp-25" edge="1">
          <mxGeometry x="-0.263" relative="1" as="geometry">
            <mxPoint as="offset" />
          </mxGeometry>
        </mxCell>
        <mxCell id="YZn09tNbRBdKCGk4qxDp-6" value="&lt;font style=&quot;font-size: 20px;&quot;&gt;Source&lt;/font&gt;" style="ellipse;whiteSpace=wrap;html=1;aspect=fixed;" parent="1" vertex="1">
          <mxGeometry x="2870" y="680" width="80" height="80" as="geometry" />
        </mxCell>
        <mxCell id="YZn09tNbRBdKCGk4qxDp-32" style="edgeStyle=orthogonalEdgeStyle;rounded=0;orthogonalLoop=1;jettySize=auto;html=1;" parent="1" source="YZn09tNbRBdKCGk4qxDp-7" target="YZn09tNbRBdKCGk4qxDp-31" edge="1">
          <mxGeometry relative="1" as="geometry" />
        </mxCell>
        <mxCell id="YZn09tNbRBdKCGk4qxDp-7" value="&lt;font style=&quot;font-size: 20px;&quot;&gt;Source&lt;/font&gt;" style="ellipse;whiteSpace=wrap;html=1;aspect=fixed;fillColor=#f8cecc;strokeColor=#b85450;" parent="1" vertex="1">
          <mxGeometry x="3060" y="770" width="80" height="80" as="geometry" />
        </mxCell>
        <mxCell id="YZn09tNbRBdKCGk4qxDp-8" value="&lt;font style=&quot;font-size: 20px;&quot;&gt;Source&lt;/font&gt;" style="ellipse;whiteSpace=wrap;html=1;aspect=fixed;fillColor=#dae8fc;strokeColor=#6c8ebf;" parent="1" vertex="1">
          <mxGeometry x="2870" y="890" width="80" height="80" as="geometry" />
        </mxCell>
        <mxCell id="YZn09tNbRBdKCGk4qxDp-9" style="edgeStyle=orthogonalEdgeStyle;rounded=0;orthogonalLoop=1;jettySize=auto;html=1;entryX=1;entryY=0.5;entryDx=0;entryDy=0;" parent="1" source="YZn09tNbRBdKCGk4qxDp-11" target="YZn09tNbRBdKCGk4qxDp-7" edge="1">
          <mxGeometry relative="1" as="geometry">
            <Array as="points">
              <mxPoint x="3265" y="810" />
            </Array>
          </mxGeometry>
        </mxCell>
        <mxCell id="YZn09tNbRBdKCGk4qxDp-10" value="&lt;span style=&quot;font-size: 20px;&quot;&gt;Chad&lt;br&gt;&lt;/span&gt;" style="edgeLabel;html=1;align=center;verticalAlign=middle;resizable=0;points=[];" parent="YZn09tNbRBdKCGk4qxDp-9" vertex="1" connectable="0">
          <mxGeometry x="-0.5034" y="-3" relative="1" as="geometry">
            <mxPoint y="-1" as="offset" />
          </mxGeometry>
        </mxCell>
        <mxCell id="YZn09tNbRBdKCGk4qxDp-11" value="&lt;font style=&quot;font-size: 20px;&quot;&gt;Source&lt;/font&gt;" style="ellipse;whiteSpace=wrap;html=1;aspect=fixed;fillColor=#f8cecc;strokeColor=#b85450;" parent="1" vertex="1">
          <mxGeometry x="3225" y="560" width="80" height="80" as="geometry" />
        </mxCell>
        <mxCell id="YZn09tNbRBdKCGk4qxDp-12" style="edgeStyle=orthogonalEdgeStyle;rounded=0;orthogonalLoop=1;jettySize=auto;html=1;entryX=0.5;entryY=0;entryDx=0;entryDy=0;exitX=0.5;exitY=1;exitDx=0;exitDy=0;" parent="1" source="YZn09tNbRBdKCGk4qxDp-5" target="YZn09tNbRBdKCGk4qxDp-6" edge="1">
          <mxGeometry relative="1" as="geometry">
            <mxPoint x="3060" y="370" as="sourcePoint" />
            <mxPoint x="3060" y="500" as="targetPoint" />
          </mxGeometry>
        </mxCell>
        <mxCell id="YZn09tNbRBdKCGk4qxDp-13" value="Text" style="edgeLabel;html=1;align=center;verticalAlign=middle;resizable=0;points=[];" parent="YZn09tNbRBdKCGk4qxDp-12" vertex="1" connectable="0">
          <mxGeometry x="-0.0154" y="1" relative="1" as="geometry">
            <mxPoint as="offset" />
          </mxGeometry>
        </mxCell>
        <mxCell id="YZn09tNbRBdKCGk4qxDp-14" value="&lt;span style=&quot;font-size: 20px;&quot;&gt;Worldwide&lt;br&gt;&lt;/span&gt;" style="edgeLabel;html=1;align=center;verticalAlign=middle;resizable=0;points=[];" parent="YZn09tNbRBdKCGk4qxDp-12" vertex="1" connectable="0">
          <mxGeometry x="-0.0615" y="3" relative="1" as="geometry">
            <mxPoint as="offset" />
          </mxGeometry>
        </mxCell>
        <mxCell id="YZn09tNbRBdKCGk4qxDp-15" style="edgeStyle=orthogonalEdgeStyle;rounded=0;orthogonalLoop=1;jettySize=auto;html=1;exitX=1;exitY=0.5;exitDx=0;exitDy=0;" parent="1" source="YZn09tNbRBdKCGk4qxDp-6" target="YZn09tNbRBdKCGk4qxDp-7" edge="1">
          <mxGeometry relative="1" as="geometry">
            <mxPoint x="3070" y="380" as="sourcePoint" />
            <mxPoint x="3070" y="510" as="targetPoint" />
          </mxGeometry>
        </mxCell>
        <mxCell id="YZn09tNbRBdKCGk4qxDp-16" value="Text" style="edgeLabel;html=1;align=center;verticalAlign=middle;resizable=0;points=[];" parent="YZn09tNbRBdKCGk4qxDp-15" vertex="1" connectable="0">
          <mxGeometry x="-0.0154" y="1" relative="1" as="geometry">
            <mxPoint as="offset" />
          </mxGeometry>
        </mxCell>
        <mxCell id="YZn09tNbRBdKCGk4qxDp-17" value="&lt;font style=&quot;font-size: 20px;&quot;&gt;Camouroun&lt;/font&gt;" style="edgeLabel;html=1;align=center;verticalAlign=middle;resizable=0;points=[];" parent="YZn09tNbRBdKCGk4qxDp-15" vertex="1" connectable="0">
          <mxGeometry x="-0.0615" y="3" relative="1" as="geometry">
            <mxPoint as="offset" />
          </mxGeometry>
        </mxCell>
        <mxCell id="YZn09tNbRBdKCGk4qxDp-18" style="edgeStyle=orthogonalEdgeStyle;rounded=0;orthogonalLoop=1;jettySize=auto;html=1;exitX=0.5;exitY=1;exitDx=0;exitDy=0;" parent="1" source="YZn09tNbRBdKCGk4qxDp-6" target="YZn09tNbRBdKCGk4qxDp-8" edge="1">
          <mxGeometry relative="1" as="geometry">
            <mxPoint x="3080" y="390" as="sourcePoint" />
            <mxPoint x="3080" y="520" as="targetPoint" />
          </mxGeometry>
        </mxCell>
        <mxCell id="YZn09tNbRBdKCGk4qxDp-19" value="Text" style="edgeLabel;html=1;align=center;verticalAlign=middle;resizable=0;points=[];" parent="YZn09tNbRBdKCGk4qxDp-18" vertex="1" connectable="0">
          <mxGeometry x="-0.0154" y="1" relative="1" as="geometry">
            <mxPoint as="offset" />
          </mxGeometry>
        </mxCell>
        <mxCell id="YZn09tNbRBdKCGk4qxDp-20" value="&lt;span style=&quot;font-size: 20px;&quot;&gt;Vietnam&lt;/span&gt;" style="edgeLabel;html=1;align=center;verticalAlign=middle;resizable=0;points=[];" parent="YZn09tNbRBdKCGk4qxDp-18" vertex="1" connectable="0">
          <mxGeometry x="-0.0615" y="3" relative="1" as="geometry">
            <mxPoint as="offset" />
          </mxGeometry>
        </mxCell>
        <mxCell id="YZn09tNbRBdKCGk4qxDp-21" value="&lt;font style=&quot;font-size: 20px;&quot;&gt;Engine&lt;/font&gt;" style="whiteSpace=wrap;html=1;aspect=fixed;fillColor=#f8cecc;strokeColor=#b85450;" parent="1" vertex="1">
          <mxGeometry x="3090" y="320" width="80" height="80" as="geometry" />
        </mxCell>
        <mxCell id="YZn09tNbRBdKCGk4qxDp-24" value="&lt;font style=&quot;font-size: 20px;&quot;&gt;Engine&lt;/font&gt;" style="whiteSpace=wrap;html=1;aspect=fixed;fillColor=#d5e8d4;strokeColor=#82b366;" parent="1" vertex="1">
          <mxGeometry x="2935" y="320" width="80" height="80" as="geometry" />
        </mxCell>
        <mxCell id="YZn09tNbRBdKCGk4qxDp-25" value="&lt;font style=&quot;font-size: 20px;&quot;&gt;Source&lt;/font&gt;" style="ellipse;whiteSpace=wrap;html=1;aspect=fixed;fillColor=#d5e8d4;strokeColor=#82b366;" parent="1" vertex="1">
          <mxGeometry x="2710" y="790" width="80" height="80" as="geometry" />
        </mxCell>
        <mxCell id="YZn09tNbRBdKCGk4qxDp-28" value="&lt;font style=&quot;font-size: 18px;&quot;&gt;What are the best photo from Africa, Asia and Latin America&lt;br&gt;&lt;/font&gt;" style="whiteSpace=wrap;html=1;shape=mxgraph.basic.roundRectCallout;dx=30;dy=15;size=5;boundedLbl=1;" parent="1" vertex="1">
          <mxGeometry x="3185" y="200" width="160" height="110" as="geometry" />
        </mxCell>
        <mxCell id="YZn09tNbRBdKCGk4qxDp-31" value="&lt;font style=&quot;font-size: 20px;&quot;&gt;Laos&lt;/font&gt;" style="ellipse;whiteSpace=wrap;html=1;aspect=fixed;fillColor=#dae8fc;strokeColor=#6c8ebf;" parent="1" vertex="1">
          <mxGeometry x="3060" y="900" width="80" height="80" as="geometry" />
        </mxCell>
        <mxCell id="OCioMkKBdpS4ipMZk7v0-2" value="&lt;font style=&quot;font-size: 20px;&quot;&gt;Engine&lt;/font&gt;" style="whiteSpace=wrap;html=1;aspect=fixed;fillColor=#f8cecc;strokeColor=#b85450;" parent="1" vertex="1">
          <mxGeometry x="-970" y="240" width="80" height="80" as="geometry" />
        </mxCell>
        <mxCell id="OCioMkKBdpS4ipMZk7v0-3" style="edgeStyle=orthogonalEdgeStyle;rounded=0;orthogonalLoop=1;jettySize=auto;html=1;entryX=0.5;entryY=0;entryDx=0;entryDy=0;" parent="1" source="OCioMkKBdpS4ipMZk7v0-5" target="OCioMkKBdpS4ipMZk7v0-11" edge="1">
          <mxGeometry relative="1" as="geometry" />
        </mxCell>
        <mxCell id="OCioMkKBdpS4ipMZk7v0-4" value="&lt;font style=&quot;font-size: 20px;&quot;&gt;Knowns&lt;/font&gt;" style="edgeLabel;html=1;align=center;verticalAlign=middle;resizable=0;points=[];" parent="OCioMkKBdpS4ipMZk7v0-3" vertex="1" connectable="0">
          <mxGeometry x="-0.4698" relative="1" as="geometry">
            <mxPoint x="18" as="offset" />
          </mxGeometry>
        </mxCell>
        <mxCell id="OCioMkKBdpS4ipMZk7v0-5" value="&lt;font style=&quot;font-size: 20px;&quot;&gt;Source&lt;/font&gt;" style="ellipse;whiteSpace=wrap;html=1;aspect=fixed;" parent="1" vertex="1">
          <mxGeometry x="-560" y="470" width="80" height="80" as="geometry" />
        </mxCell>
        <mxCell id="OCioMkKBdpS4ipMZk7v0-6" value="&lt;font style=&quot;font-size: 20px;&quot;&gt;Source&lt;/font&gt;" style="ellipse;whiteSpace=wrap;html=1;aspect=fixed;" parent="1" vertex="1">
          <mxGeometry x="-700" y="660" width="80" height="80" as="geometry" />
        </mxCell>
        <mxCell id="OCioMkKBdpS4ipMZk7v0-7" value="&lt;font style=&quot;font-size: 20px;&quot;&gt;Source&lt;/font&gt;" style="ellipse;whiteSpace=wrap;html=1;aspect=fixed;" parent="1" vertex="1">
          <mxGeometry x="-510" y="750" width="80" height="80" as="geometry" />
        </mxCell>
        <mxCell id="OCioMkKBdpS4ipMZk7v0-8" value="&lt;font style=&quot;font-size: 20px;&quot;&gt;Source&lt;/font&gt;" style="ellipse;whiteSpace=wrap;html=1;aspect=fixed;" parent="1" vertex="1">
          <mxGeometry x="-790" y="810" width="80" height="80" as="geometry" />
        </mxCell>
        <mxCell id="OCioMkKBdpS4ipMZk7v0-11" value="&lt;font style=&quot;font-size: 20px;&quot;&gt;Source&lt;/font&gt;" style="ellipse;whiteSpace=wrap;html=1;aspect=fixed;" parent="1" vertex="1">
          <mxGeometry x="-345" y="540" width="80" height="80" as="geometry" />
        </mxCell>
        <mxCell id="OCioMkKBdpS4ipMZk7v0-12" style="edgeStyle=orthogonalEdgeStyle;rounded=0;orthogonalLoop=1;jettySize=auto;html=1;entryX=0.5;entryY=0;entryDx=0;entryDy=0;exitX=0.5;exitY=1;exitDx=0;exitDy=0;" parent="1" source="OCioMkKBdpS4ipMZk7v0-5" target="OCioMkKBdpS4ipMZk7v0-6" edge="1">
          <mxGeometry relative="1" as="geometry">
            <mxPoint x="-510" y="350" as="sourcePoint" />
            <mxPoint x="-510" y="480" as="targetPoint" />
          </mxGeometry>
        </mxCell>
        <mxCell id="OCioMkKBdpS4ipMZk7v0-13" value="Text" style="edgeLabel;html=1;align=center;verticalAlign=middle;resizable=0;points=[];" parent="OCioMkKBdpS4ipMZk7v0-12" vertex="1" connectable="0">
          <mxGeometry x="-0.0154" y="1" relative="1" as="geometry">
            <mxPoint as="offset" />
          </mxGeometry>
        </mxCell>
        <mxCell id="OCioMkKBdpS4ipMZk7v0-14" value="&lt;span style=&quot;font-size: 20px;&quot;&gt;Has a contract&lt;br&gt;&lt;/span&gt;" style="edgeLabel;html=1;align=center;verticalAlign=middle;resizable=0;points=[];" parent="OCioMkKBdpS4ipMZk7v0-12" vertex="1" connectable="0">
          <mxGeometry x="-0.0615" y="3" relative="1" as="geometry">
            <mxPoint as="offset" />
          </mxGeometry>
        </mxCell>
        <mxCell id="OCioMkKBdpS4ipMZk7v0-15" style="edgeStyle=orthogonalEdgeStyle;rounded=0;orthogonalLoop=1;jettySize=auto;html=1;exitX=1;exitY=0.5;exitDx=0;exitDy=0;" parent="1" source="OCioMkKBdpS4ipMZk7v0-6" target="OCioMkKBdpS4ipMZk7v0-7" edge="1">
          <mxGeometry relative="1" as="geometry">
            <mxPoint x="-500" y="360" as="sourcePoint" />
            <mxPoint x="-500" y="490" as="targetPoint" />
          </mxGeometry>
        </mxCell>
        <mxCell id="OCioMkKBdpS4ipMZk7v0-16" value="Text" style="edgeLabel;html=1;align=center;verticalAlign=middle;resizable=0;points=[];" parent="OCioMkKBdpS4ipMZk7v0-15" vertex="1" connectable="0">
          <mxGeometry x="-0.0154" y="1" relative="1" as="geometry">
            <mxPoint as="offset" />
          </mxGeometry>
        </mxCell>
        <mxCell id="OCioMkKBdpS4ipMZk7v0-17" value="&lt;font style=&quot;font-size: 20px;&quot;&gt;Dislike&lt;/font&gt;" style="edgeLabel;html=1;align=center;verticalAlign=middle;resizable=0;points=[];" parent="OCioMkKBdpS4ipMZk7v0-15" vertex="1" connectable="0">
          <mxGeometry x="-0.0615" y="3" relative="1" as="geometry">
            <mxPoint as="offset" />
          </mxGeometry>
        </mxCell>
        <mxCell id="OCioMkKBdpS4ipMZk7v0-18" style="edgeStyle=orthogonalEdgeStyle;rounded=0;orthogonalLoop=1;jettySize=auto;html=1;exitX=0.5;exitY=1;exitDx=0;exitDy=0;" parent="1" source="OCioMkKBdpS4ipMZk7v0-6" target="OCioMkKBdpS4ipMZk7v0-8" edge="1">
          <mxGeometry relative="1" as="geometry">
            <mxPoint x="-490" y="370" as="sourcePoint" />
            <mxPoint x="-490" y="500" as="targetPoint" />
          </mxGeometry>
        </mxCell>
        <mxCell id="OCioMkKBdpS4ipMZk7v0-19" value="Text" style="edgeLabel;html=1;align=center;verticalAlign=middle;resizable=0;points=[];" parent="OCioMkKBdpS4ipMZk7v0-18" vertex="1" connectable="0">
          <mxGeometry x="-0.0154" y="1" relative="1" as="geometry">
            <mxPoint as="offset" />
          </mxGeometry>
        </mxCell>
        <mxCell id="OCioMkKBdpS4ipMZk7v0-20" value="&lt;font style=&quot;font-size: 20px;&quot;&gt;Knowns&lt;/font&gt;" style="edgeLabel;html=1;align=center;verticalAlign=middle;resizable=0;points=[];" parent="OCioMkKBdpS4ipMZk7v0-18" vertex="1" connectable="0">
          <mxGeometry x="-0.0615" y="3" relative="1" as="geometry">
            <mxPoint as="offset" />
          </mxGeometry>
        </mxCell>
        <mxCell id="OCioMkKBdpS4ipMZk7v0-28" style="edgeStyle=orthogonalEdgeStyle;rounded=0;orthogonalLoop=1;jettySize=auto;html=1;entryX=0;entryY=0.5;entryDx=0;entryDy=0;" parent="1" source="OCioMkKBdpS4ipMZk7v0-21" target="OCioMkKBdpS4ipMZk7v0-6" edge="1">
          <mxGeometry relative="1" as="geometry" />
        </mxCell>
        <mxCell id="OCioMkKBdpS4ipMZk7v0-21" value="&lt;font style=&quot;font-size: 20px;&quot;&gt;Engine&lt;/font&gt;" style="whiteSpace=wrap;html=1;aspect=fixed;fillColor=#dae8fc;strokeColor=#6c8ebf;" parent="1" vertex="1">
          <mxGeometry x="-810" y="660" width="80" height="80" as="geometry" />
        </mxCell>
        <mxCell id="OCioMkKBdpS4ipMZk7v0-26" style="edgeStyle=orthogonalEdgeStyle;rounded=0;orthogonalLoop=1;jettySize=auto;html=1;" parent="1" source="OCioMkKBdpS4ipMZk7v0-22" target="OCioMkKBdpS4ipMZk7v0-5" edge="1">
          <mxGeometry relative="1" as="geometry" />
        </mxCell>
        <mxCell id="OCioMkKBdpS4ipMZk7v0-22" value="&lt;font style=&quot;font-size: 20px;&quot;&gt;Engine&lt;/font&gt;" style="whiteSpace=wrap;html=1;aspect=fixed;fillColor=#dae8fc;strokeColor=#6c8ebf;" parent="1" vertex="1">
          <mxGeometry x="-710" y="470" width="80" height="80" as="geometry" />
        </mxCell>
        <mxCell id="OCioMkKBdpS4ipMZk7v0-48" value="" style="edgeStyle=orthogonalEdgeStyle;rounded=0;orthogonalLoop=1;jettySize=auto;html=1;" parent="1" source="OCioMkKBdpS4ipMZk7v0-23" target="OCioMkKBdpS4ipMZk7v0-45" edge="1">
          <mxGeometry relative="1" as="geometry" />
        </mxCell>
        <mxCell id="OCioMkKBdpS4ipMZk7v0-23" value="&lt;font style=&quot;font-size: 20px;&quot;&gt;Engine&lt;/font&gt;" style="whiteSpace=wrap;html=1;aspect=fixed;fillColor=#dae8fc;strokeColor=#6c8ebf;" parent="1" vertex="1">
          <mxGeometry x="-180" y="570" width="80" height="80" as="geometry" />
        </mxCell>
        <mxCell id="OCioMkKBdpS4ipMZk7v0-24" value="&lt;font style=&quot;font-size: 20px;&quot;&gt;Engine&lt;/font&gt;" style="whiteSpace=wrap;html=1;aspect=fixed;fillColor=#f8cecc;strokeColor=#b85450;" parent="1" vertex="1">
          <mxGeometry x="-890" y="240" width="80" height="80" as="geometry" />
        </mxCell>
        <mxCell id="OCioMkKBdpS4ipMZk7v0-25" value="&lt;font style=&quot;font-size: 20px;&quot;&gt;Engine&lt;/font&gt;" style="whiteSpace=wrap;html=1;aspect=fixed;fillColor=#f8cecc;strokeColor=#b85450;" parent="1" vertex="1">
          <mxGeometry x="-810" y="240" width="80" height="80" as="geometry" />
        </mxCell>
        <mxCell id="OCioMkKBdpS4ipMZk7v0-29" value="&lt;font style=&quot;font-size: 20px;&quot;&gt;Comunication&lt;/font&gt;" style="shape=process;whiteSpace=wrap;html=1;backgroundOutline=1;" parent="1" vertex="1">
          <mxGeometry x="-930" y="380" width="160" height="80" as="geometry" />
        </mxCell>
        <mxCell id="OCioMkKBdpS4ipMZk7v0-30" value="&lt;font style=&quot;font-size: 20px;&quot;&gt;&lt;b&gt;Join operation&lt;/b&gt;&lt;/font&gt;" style="text;html=1;align=center;verticalAlign=middle;resizable=0;points=[];autosize=1;strokeColor=none;fillColor=none;" parent="1" vertex="1">
          <mxGeometry x="-940" y="190" width="160" height="40" as="geometry" />
        </mxCell>
        <mxCell id="OCioMkKBdpS4ipMZk7v0-31" value="" style="endArrow=none;dashed=1;html=1;dashPattern=1 3;strokeWidth=2;rounded=0;exitX=0;exitY=0.5;exitDx=0;exitDy=0;entryX=0.5;entryY=1;entryDx=0;entryDy=0;" parent="1" source="OCioMkKBdpS4ipMZk7v0-22" target="OCioMkKBdpS4ipMZk7v0-29" edge="1">
          <mxGeometry width="50" height="50" relative="1" as="geometry">
            <mxPoint x="-610" y="510" as="sourcePoint" />
            <mxPoint x="-560" y="460" as="targetPoint" />
            <Array as="points">
              <mxPoint x="-850" y="510" />
            </Array>
          </mxGeometry>
        </mxCell>
        <mxCell id="OCioMkKBdpS4ipMZk7v0-32" value="" style="endArrow=none;dashed=1;html=1;dashPattern=1 3;strokeWidth=2;rounded=0;exitX=0;exitY=0.5;exitDx=0;exitDy=0;" parent="1" source="OCioMkKBdpS4ipMZk7v0-21" edge="1">
          <mxGeometry width="50" height="50" relative="1" as="geometry">
            <mxPoint x="-610" y="510" as="sourcePoint" />
            <mxPoint x="-850" y="460" as="targetPoint" />
            <Array as="points">
              <mxPoint x="-850" y="700" />
            </Array>
          </mxGeometry>
        </mxCell>
        <mxCell id="OCioMkKBdpS4ipMZk7v0-33" value="" style="endArrow=none;dashed=1;html=1;dashPattern=1 3;strokeWidth=2;rounded=0;exitX=0.5;exitY=0;exitDx=0;exitDy=0;entryX=1;entryY=0.5;entryDx=0;entryDy=0;" parent="1" source="OCioMkKBdpS4ipMZk7v0-23" target="OCioMkKBdpS4ipMZk7v0-29" edge="1">
          <mxGeometry width="50" height="50" relative="1" as="geometry">
            <mxPoint x="-610" y="510" as="sourcePoint" />
            <mxPoint x="-560" y="460" as="targetPoint" />
            <Array as="points">
              <mxPoint x="-140" y="420" />
            </Array>
          </mxGeometry>
        </mxCell>
        <mxCell id="OCioMkKBdpS4ipMZk7v0-34" value="" style="endArrow=none;dashed=1;html=1;dashPattern=1 3;strokeWidth=2;rounded=0;entryX=0.5;entryY=1;entryDx=0;entryDy=0;exitX=0.5;exitY=0;exitDx=0;exitDy=0;" parent="1" source="OCioMkKBdpS4ipMZk7v0-29" target="OCioMkKBdpS4ipMZk7v0-24" edge="1">
          <mxGeometry width="50" height="50" relative="1" as="geometry">
            <mxPoint x="-840" y="510" as="sourcePoint" />
            <mxPoint x="-790" y="460" as="targetPoint" />
          </mxGeometry>
        </mxCell>
        <mxCell id="OCioMkKBdpS4ipMZk7v0-35" value="&lt;font style=&quot;font-size: 20px;&quot;&gt;Source&lt;/font&gt;" style="ellipse;whiteSpace=wrap;html=1;aspect=fixed;" parent="1" vertex="1">
          <mxGeometry x="-780" y="820" width="80" height="80" as="geometry" />
        </mxCell>
        <mxCell id="OCioMkKBdpS4ipMZk7v0-36" value="&lt;font style=&quot;font-size: 20px;&quot;&gt;Source&lt;/font&gt;" style="ellipse;whiteSpace=wrap;html=1;aspect=fixed;" parent="1" vertex="1">
          <mxGeometry x="-770" y="830" width="80" height="80" as="geometry" />
        </mxCell>
        <mxCell id="OCioMkKBdpS4ipMZk7v0-37" value="&lt;font style=&quot;font-size: 20px;&quot;&gt;Source&lt;/font&gt;" style="ellipse;whiteSpace=wrap;html=1;aspect=fixed;" parent="1" vertex="1">
          <mxGeometry x="-760" y="840" width="80" height="80" as="geometry" />
        </mxCell>
        <mxCell id="OCioMkKBdpS4ipMZk7v0-38" value="&lt;font style=&quot;font-size: 20px;&quot;&gt;Source&lt;/font&gt;" style="ellipse;whiteSpace=wrap;html=1;aspect=fixed;" parent="1" vertex="1">
          <mxGeometry x="-690" y="670" width="80" height="80" as="geometry" />
        </mxCell>
        <mxCell id="OCioMkKBdpS4ipMZk7v0-39" value="&lt;font style=&quot;font-size: 20px;&quot;&gt;Source&lt;/font&gt;" style="ellipse;whiteSpace=wrap;html=1;aspect=fixed;" parent="1" vertex="1">
          <mxGeometry x="-680" y="680" width="80" height="80" as="geometry" />
        </mxCell>
        <mxCell id="OCioMkKBdpS4ipMZk7v0-40" value="&lt;font style=&quot;font-size: 20px;&quot;&gt;Source&lt;/font&gt;" style="ellipse;whiteSpace=wrap;html=1;aspect=fixed;" parent="1" vertex="1">
          <mxGeometry x="-500" y="760" width="80" height="80" as="geometry" />
        </mxCell>
        <mxCell id="OCioMkKBdpS4ipMZk7v0-41" value="&lt;font style=&quot;font-size: 20px;&quot;&gt;Source&lt;/font&gt;" style="ellipse;whiteSpace=wrap;html=1;aspect=fixed;" parent="1" vertex="1">
          <mxGeometry x="-490" y="770" width="80" height="80" as="geometry" />
        </mxCell>
        <mxCell id="OCioMkKBdpS4ipMZk7v0-42" value="&lt;font style=&quot;font-size: 20px;&quot;&gt;Source&lt;/font&gt;" style="ellipse;whiteSpace=wrap;html=1;aspect=fixed;" parent="1" vertex="1">
          <mxGeometry x="-480" y="780" width="80" height="80" as="geometry" />
        </mxCell>
        <mxCell id="OCioMkKBdpS4ipMZk7v0-43" value="&lt;font style=&quot;font-size: 20px;&quot;&gt;Source&lt;/font&gt;" style="ellipse;whiteSpace=wrap;html=1;aspect=fixed;" parent="1" vertex="1">
          <mxGeometry x="-335" y="550" width="80" height="80" as="geometry" />
        </mxCell>
        <mxCell id="OCioMkKBdpS4ipMZk7v0-44" value="&lt;font style=&quot;font-size: 20px;&quot;&gt;Source&lt;/font&gt;" style="ellipse;whiteSpace=wrap;html=1;aspect=fixed;" parent="1" vertex="1">
          <mxGeometry x="-325" y="560" width="80" height="80" as="geometry" />
        </mxCell>
        <mxCell id="OCioMkKBdpS4ipMZk7v0-45" value="&lt;font style=&quot;font-size: 20px;&quot;&gt;Source&lt;/font&gt;" style="ellipse;whiteSpace=wrap;html=1;aspect=fixed;" parent="1" vertex="1">
          <mxGeometry x="-315" y="570" width="80" height="80" as="geometry" />
        </mxCell>
        <mxCell id="OCioMkKBdpS4ipMZk7v0-46" value="&lt;font style=&quot;font-size: 20px;&quot;&gt;Source&lt;/font&gt;" style="ellipse;whiteSpace=wrap;html=1;aspect=fixed;" parent="1" vertex="1">
          <mxGeometry x="-550" y="480" width="80" height="80" as="geometry" />
        </mxCell>
        <mxCell id="OCioMkKBdpS4ipMZk7v0-47" value="&lt;font style=&quot;font-size: 20px;&quot;&gt;Source&lt;/font&gt;" style="ellipse;whiteSpace=wrap;html=1;aspect=fixed;" parent="1" vertex="1">
          <mxGeometry x="-540" y="490" width="80" height="80" as="geometry" />
        </mxCell>
        <mxCell id="OCioMkKBdpS4ipMZk7v0-9" style="edgeStyle=orthogonalEdgeStyle;rounded=0;orthogonalLoop=1;jettySize=auto;html=1;entryX=1;entryY=0.5;entryDx=0;entryDy=0;" parent="1" source="OCioMkKBdpS4ipMZk7v0-11" target="OCioMkKBdpS4ipMZk7v0-42" edge="1">
          <mxGeometry relative="1" as="geometry">
            <Array as="points">
              <mxPoint x="-305" y="820" />
            </Array>
          </mxGeometry>
        </mxCell>
        <mxCell id="OCioMkKBdpS4ipMZk7v0-10" value="&lt;span style=&quot;font-size: 20px;&quot;&gt;Likes&lt;br&gt;&lt;/span&gt;" style="edgeLabel;html=1;align=center;verticalAlign=middle;resizable=0;points=[];" parent="OCioMkKBdpS4ipMZk7v0-9" vertex="1" connectable="0">
          <mxGeometry x="-0.5034" y="-3" relative="1" as="geometry">
            <mxPoint y="-1" as="offset" />
          </mxGeometry>
        </mxCell>
        <mxCell id="OCioMkKBdpS4ipMZk7v0-59" style="edgeStyle=orthogonalEdgeStyle;rounded=0;orthogonalLoop=1;jettySize=auto;html=1;" parent="1" source="OCioMkKBdpS4ipMZk7v0-49" target="OCioMkKBdpS4ipMZk7v0-55" edge="1">
          <mxGeometry relative="1" as="geometry" />
        </mxCell>
        <mxCell id="OCioMkKBdpS4ipMZk7v0-49" value="&lt;font style=&quot;font-size: 20px;&quot;&gt;Engine&lt;/font&gt;" style="whiteSpace=wrap;html=1;aspect=fixed;" parent="1" vertex="1">
          <mxGeometry x="-430" y="1210" width="80" height="80" as="geometry" />
        </mxCell>
        <mxCell id="OCioMkKBdpS4ipMZk7v0-56" style="edgeStyle=orthogonalEdgeStyle;rounded=0;orthogonalLoop=1;jettySize=auto;html=1;entryX=0;entryY=0.5;entryDx=0;entryDy=0;" parent="1" source="OCioMkKBdpS4ipMZk7v0-50" target="OCioMkKBdpS4ipMZk7v0-55" edge="1">
          <mxGeometry relative="1" as="geometry" />
        </mxCell>
        <mxCell id="OCioMkKBdpS4ipMZk7v0-50" value="&lt;font style=&quot;font-size: 20px;&quot;&gt;Engine&lt;/font&gt;" style="whiteSpace=wrap;html=1;aspect=fixed;" parent="1" vertex="1">
          <mxGeometry x="-790" y="1395" width="80" height="80" as="geometry" />
        </mxCell>
        <mxCell id="OCioMkKBdpS4ipMZk7v0-57" style="edgeStyle=orthogonalEdgeStyle;rounded=0;orthogonalLoop=1;jettySize=auto;html=1;entryX=0.5;entryY=1;entryDx=0;entryDy=0;" parent="1" source="OCioMkKBdpS4ipMZk7v0-51" target="OCioMkKBdpS4ipMZk7v0-55" edge="1">
          <mxGeometry relative="1" as="geometry" />
        </mxCell>
        <mxCell id="OCioMkKBdpS4ipMZk7v0-51" value="&lt;font style=&quot;font-size: 20px;&quot;&gt;Engine&lt;/font&gt;" style="whiteSpace=wrap;html=1;aspect=fixed;" parent="1" vertex="1">
          <mxGeometry x="-530" y="1490" width="80" height="80" as="geometry" />
        </mxCell>
        <mxCell id="OCioMkKBdpS4ipMZk7v0-58" style="edgeStyle=orthogonalEdgeStyle;rounded=0;orthogonalLoop=1;jettySize=auto;html=1;entryX=1;entryY=0.5;entryDx=0;entryDy=0;" parent="1" source="OCioMkKBdpS4ipMZk7v0-52" target="OCioMkKBdpS4ipMZk7v0-55" edge="1">
          <mxGeometry relative="1" as="geometry" />
        </mxCell>
        <mxCell id="OCioMkKBdpS4ipMZk7v0-52" value="&lt;font style=&quot;font-size: 20px;&quot;&gt;Engine&lt;/font&gt;" style="whiteSpace=wrap;html=1;aspect=fixed;" parent="1" vertex="1">
          <mxGeometry x="-370" y="1350" width="80" height="80" as="geometry" />
        </mxCell>
        <mxCell id="OCioMkKBdpS4ipMZk7v0-60" style="edgeStyle=orthogonalEdgeStyle;rounded=0;orthogonalLoop=1;jettySize=auto;html=1;entryX=0.25;entryY=0;entryDx=0;entryDy=0;" parent="1" source="OCioMkKBdpS4ipMZk7v0-53" target="OCioMkKBdpS4ipMZk7v0-55" edge="1">
          <mxGeometry relative="1" as="geometry" />
        </mxCell>
        <mxCell id="OCioMkKBdpS4ipMZk7v0-53" value="&lt;font style=&quot;font-size: 20px;&quot;&gt;Engine&lt;/font&gt;" style="whiteSpace=wrap;html=1;aspect=fixed;" parent="1" vertex="1">
          <mxGeometry x="-670" y="1210" width="80" height="80" as="geometry" />
        </mxCell>
        <mxCell id="OCioMkKBdpS4ipMZk7v0-55" value="&lt;font style=&quot;font-size: 20px;&quot;&gt;DHT&lt;br&gt;Interface&lt;br&gt;&lt;/font&gt;" style="shape=process;whiteSpace=wrap;html=1;backgroundOutline=1;" parent="1" vertex="1">
          <mxGeometry x="-620" y="1350" width="160" height="80" as="geometry" />
        </mxCell>
        <mxCell id="OCioMkKBdpS4ipMZk7v0-62" value="&lt;font style=&quot;font-size: 20px;&quot;&gt;Engine&lt;/font&gt;" style="whiteSpace=wrap;html=1;aspect=fixed;fillColor=#dae8fc;strokeColor=#6c8ebf;fontSize=20;" parent="1" vertex="1">
          <mxGeometry x="-2180" y="595" width="80" height="80" as="geometry" />
        </mxCell>
        <mxCell id="OCioMkKBdpS4ipMZk7v0-63" value="&lt;font style=&quot;font-size: 20px;&quot;&gt;Engine&lt;/font&gt;" style="whiteSpace=wrap;html=1;aspect=fixed;fillColor=#dae8fc;strokeColor=#6c8ebf;fontSize=20;" parent="1" vertex="1">
          <mxGeometry x="-2170" y="705" width="80" height="80" as="geometry" />
        </mxCell>
        <mxCell id="OCioMkKBdpS4ipMZk7v0-64" value="&lt;font style=&quot;font-size: 20px;&quot;&gt;Engine&lt;/font&gt;" style="whiteSpace=wrap;html=1;aspect=fixed;fillColor=#dae8fc;strokeColor=#6c8ebf;fontSize=20;" parent="1" vertex="1">
          <mxGeometry x="-2060" y="615" width="80" height="80" as="geometry" />
        </mxCell>
        <mxCell id="OCioMkKBdpS4ipMZk7v0-65" value="&lt;font style=&quot;font-size: 20px;&quot;&gt;Engine&lt;/font&gt;" style="whiteSpace=wrap;html=1;aspect=fixed;fillColor=#fff2cc;strokeColor=#d6b656;fontSize=20;" parent="1" vertex="1">
          <mxGeometry x="-1710" y="801.88" width="80" height="80" as="geometry" />
        </mxCell>
        <mxCell id="OCioMkKBdpS4ipMZk7v0-66" value="&lt;font style=&quot;font-size: 20px;&quot;&gt;Engine&lt;/font&gt;" style="whiteSpace=wrap;html=1;aspect=fixed;fillColor=#fff2cc;strokeColor=#d6b656;fontSize=20;" parent="1" vertex="1">
          <mxGeometry x="-1680" y="911.88" width="80" height="80" as="geometry" />
        </mxCell>
        <mxCell id="OCioMkKBdpS4ipMZk7v0-67" value="&lt;font style=&quot;font-size: 20px;&quot;&gt;Engine&lt;/font&gt;" style="whiteSpace=wrap;html=1;aspect=fixed;fillColor=#fff2cc;strokeColor=#d6b656;fontSize=20;" parent="1" vertex="1">
          <mxGeometry x="-1590" y="761.88" width="80" height="80" as="geometry" />
        </mxCell>
        <mxCell id="OCioMkKBdpS4ipMZk7v0-68" value="&lt;font style=&quot;font-size: 20px;&quot;&gt;Engine&lt;/font&gt;" style="whiteSpace=wrap;html=1;aspect=fixed;fillColor=#fff2cc;strokeColor=#d6b656;fontSize=20;" parent="1" vertex="1">
          <mxGeometry x="-1580" y="861.88" width="80" height="80" as="geometry" />
        </mxCell>
        <mxCell id="OCioMkKBdpS4ipMZk7v0-69" value="&lt;font style=&quot;font-size: 20px;&quot;&gt;Engine&lt;/font&gt;" style="whiteSpace=wrap;html=1;aspect=fixed;fillColor=#fff2cc;strokeColor=#d6b656;fontSize=20;" parent="1" vertex="1">
          <mxGeometry x="-1560" y="956.88" width="80" height="80" as="geometry" />
        </mxCell>
        <mxCell id="OCioMkKBdpS4ipMZk7v0-70" value="&lt;font style=&quot;font-size: 20px;&quot;&gt;Engine&lt;/font&gt;" style="whiteSpace=wrap;html=1;aspect=fixed;fillColor=#f8cecc;strokeColor=#b85450;" parent="1" vertex="1">
          <mxGeometry x="-1785" y="440" width="80" height="80" as="geometry" />
        </mxCell>
        <mxCell id="OCioMkKBdpS4ipMZk7v0-71" value="&lt;font style=&quot;font-size: 20px;&quot;&gt;Engine&lt;/font&gt;" style="whiteSpace=wrap;html=1;aspect=fixed;fillColor=#f8cecc;strokeColor=#b85450;fontSize=20;" parent="1" vertex="1">
          <mxGeometry x="-1690" y="510" width="80" height="80" as="geometry" />
        </mxCell>
        <mxCell id="OCioMkKBdpS4ipMZk7v0-76" value="&lt;font style=&quot;font-size: 20px;&quot;&gt;We tend to query things about animals&lt;br style=&quot;font-size: 20px;&quot;&gt;&lt;/font&gt;" style="whiteSpace=wrap;html=1;shape=mxgraph.basic.roundRectCallout;dx=30;dy=15;size=5;boundedLbl=1;fontSize=20;" parent="1" vertex="1">
          <mxGeometry x="-2080" y="482.5" width="160" height="110" as="geometry" />
        </mxCell>
        <mxCell id="OCioMkKBdpS4ipMZk7v0-77" value="&lt;font style=&quot;&quot;&gt;&lt;font style=&quot;font-size: 20px;&quot;&gt;We query things about our school&lt;/font&gt;&lt;br&gt;&lt;/font&gt;" style="whiteSpace=wrap;html=1;shape=mxgraph.basic.roundRectCallout;dx=30;dy=15;size=5;boundedLbl=1;" parent="1" vertex="1">
          <mxGeometry x="-1700" y="320" width="160" height="110" as="geometry" />
        </mxCell>
        <mxCell id="OCioMkKBdpS4ipMZk7v0-78" value="&lt;font style=&quot;&quot;&gt;&lt;font style=&quot;font-size: 20px;&quot;&gt;We query things about our city&lt;/font&gt;&lt;br&gt;&lt;/font&gt;" style="whiteSpace=wrap;html=1;shape=mxgraph.basic.roundRectCallout;dx=30;dy=15;size=5;boundedLbl=1;" parent="1" vertex="1">
          <mxGeometry x="-1490" y="691.88" width="160" height="110" as="geometry" />
        </mxCell>
      </root>
    </mxGraphModel>
  </diagram>
</mxfile>
